<?xml version="1.0" encoding="utf-8"?>
<!-- Generator: Adobe Illustrator 22.0.1, SVG Export Plug-In . SVG Version: 6.00 Build 0)  -->
<svg version="1.1" id="레이어_1" xmlns="http://www.w3.org/2000/svg" xmlns:xlink="http://www.w3.org/1999/xlink" x="0px"
	 y="0px" viewBox="0 0 512 512" style="enable-background:new 0 0 512 512;" xml:space="preserve">
<style type="text/css">
	.st0{fill:#C80000;}
	.st1{fill:#FFFFFF;}
</style>
<circle class="st0" cx="256.5" cy="255.5" r="253"/>
<g>
	<g>
		<path class="st1" d="M117.4,252.5c3.8,5.9,5.2,12.4,4.3,19.5c-0.7,4.7-2.1,9.1-4.3,13.3c-2.2,4.2-5.2,7.8-8.9,11
			c-3.8,3.2-8.5,5.7-13.9,7.5c-5.5,1.8-11.8,2.7-19,2.7c-8,0-14.9-1.3-20.8-3.9c-5.9-2.6-10.8-6.1-14.8-10.5
			c-3.8-4.4-6.7-9.4-8.7-15.1c-2-5.7-3-11.6-3.1-17.7h21.6c0.3,9.6,2.9,16.7,7.7,21.2c4.8,4.5,10.9,6.7,18.4,6.7
			c7.3,0,12.8-1.5,16.6-4.6c3.7-3.1,6.1-7,7.1-11.8c0.7-3.6,0.1-6.5-1.8-8.6c-1.9-2.1-4.6-4.1-8.2-5.8c-2.5-1.1-5.1-1.9-7.8-2.5
			c-2.7-0.5-5.4-1-8.3-1.5c-2.7-0.4-5.5-0.9-8.4-1.4c-2.8-0.5-5.7-1.3-8.5-2.5c-8.3-3.3-14.5-7.3-18.6-12c-4.1-4.7-6-11.3-5.8-19.8
			c0-4,0.9-8.2,2.8-12.4c1.9-4.2,4.6-8,8.2-11.2c3.5-3.4,7.9-6.1,13.2-8.3c5.3-2.1,11.5-3.2,18.6-3.2c8.3,0,15.3,1.4,20.8,4.3
			c5.6,2.8,10.1,6.4,13.4,10.7c3.4,4.2,5.8,8.7,7.2,13.6c1.4,4.9,2.1,9.4,2.1,13.4H96.9c0-6.9-1.8-12.4-5.4-16.6
			c-3.6-4.2-9.2-6.3-16.7-6.3c-6.9,0-12,1.7-15.3,5.1c-3.3,3.4-5,7.1-5,11c0,4.2,1.2,7.1,3.6,8.9c2.4,1.8,5.1,3.1,8,3.9
			c2,0.9,4.3,1.6,7,2.1c2.7,0.5,5.6,1.1,8.8,1.6c3.1,0.7,6.2,1.4,9.5,2.3c3.3,0.9,6.5,2,9.7,3.3C108.1,242,113.6,246.5,117.4,252.5z
			"/>
		<path class="st1" d="M147.8,291.2c0-7.4,5.3-12.9,12.2-12.9c6.9,0,12.2,5.4,12.2,12.9c0,7.3-5.3,12.7-12.2,12.7
			C153.1,303.9,147.8,298.5,147.8,291.2z"/>
		<path class="st1" d="M278.1,186.9c6.7,2.9,12.4,7,17.1,12.4c4.8,5.4,8.5,11.8,11.1,19.3c2.6,7.5,3.9,15.8,3.9,25
			c0,9.4-1.3,17.9-3.9,25.5c-2.6,7.6-6.3,14.1-11.1,19.4c-4.7,5.4-10.4,9.5-17.1,12.4c-6.7,2.9-14.2,4.3-22.5,4.3
			c-8.4,0-16-1.5-22.7-4.3c-6.7-2.9-12.4-7-17.1-12.4c-4.7-5.4-8.3-11.8-10.8-19.4c-2.5-7.6-3.8-16.1-3.8-25.5
			c0-9.2,1.3-17.5,3.8-25c2.5-7.5,6.1-13.9,10.8-19.3c4.7-5.4,10.4-9.5,17.1-12.4c6.7-2.9,14.3-4.3,22.7-4.3
			C263.8,182.6,271.4,184,278.1,186.9z M279.4,274.4c5.7-7.8,8.6-18,8.6-30.8c0-12.4-2.9-22.4-8.6-30.1
			c-5.7-7.7-13.7-11.6-23.9-11.6c-10.4,0-18.4,3.9-24.1,11.6c-5.7,7.7-8.5,17.7-8.5,30.1c0,12.8,2.8,23.1,8.5,30.8
			c5.7,7.8,13.7,11.6,24.1,11.6C265.7,286.1,273.7,282.2,279.4,274.4z"/>
		<path class="st1" d="M339.5,291.2c0-7.4,5.3-12.9,12.2-12.9s12.2,5.4,12.2,12.9c0,7.3-5.3,12.7-12.2,12.7S339.5,298.5,339.5,291.2
			z"/>
		<path class="st1" d="M479.6,252.5c3.8,5.9,5.2,12.4,4.3,19.5c-0.7,4.7-2.1,9.1-4.3,13.3c-2.2,4.2-5.2,7.8-8.9,11
			c-3.8,3.2-8.5,5.7-13.9,7.5c-5.5,1.8-11.8,2.7-19,2.7c-8,0-14.9-1.3-20.8-3.9s-10.8-6.1-14.8-10.5c-3.8-4.4-6.7-9.4-8.7-15.1
			c-2-5.7-3-11.6-3.1-17.7h21.6c0.3,9.6,2.9,16.7,7.7,21.2c4.8,4.5,10.9,6.7,18.4,6.7c7.3,0,12.8-1.5,16.6-4.6
			c3.7-3.1,6.1-7,7.1-11.8c0.7-3.6,0.1-6.5-1.8-8.6c-1.9-2.1-4.6-4.1-8.2-5.8c-2.5-1.1-5.1-1.9-7.8-2.5c-2.7-0.5-5.4-1-8.3-1.5
			c-2.7-0.4-5.5-0.9-8.4-1.4c-2.8-0.5-5.7-1.3-8.5-2.5c-8.3-3.3-14.5-7.3-18.6-12c-4.1-4.7-6-11.3-5.8-19.8c0-4,0.9-8.2,2.8-12.4
			c1.9-4.2,4.6-8,8.2-11.2c3.5-3.4,7.9-6.1,13.2-8.3c5.3-2.1,11.5-3.2,18.6-3.2c8.3,0,15.3,1.4,20.8,4.3c5.6,2.8,10.1,6.4,13.4,10.7
			c3.4,4.2,5.8,8.7,7.2,13.6c1.4,4.9,2.1,9.4,2.1,13.4h-21.5c0-6.9-1.8-12.4-5.4-16.6c-3.6-4.2-9.2-6.3-16.7-6.3
			c-6.9,0-12,1.7-15.3,5.1c-3.3,3.4-5,7.1-5,11c0,4.2,1.2,7.1,3.6,8.9c2.4,1.8,5.1,3.1,8,3.9c2,0.9,4.3,1.6,7,2.1
			c2.7,0.5,5.6,1.1,8.8,1.6c3.1,0.7,6.2,1.4,9.5,2.3c3.3,0.9,6.5,2,9.7,3.3C470.3,242,475.7,246.5,479.6,252.5z"/>
	</g>
</g>
</svg>
