<?xml version="1.0" encoding="utf-8"?>
<!-- Generator: Adobe Illustrator 22.0.1, SVG Export Plug-In . SVG Version: 6.00 Build 0)  -->
<svg version="1.1" id="레이어_1" xmlns="http://www.w3.org/2000/svg" xmlns:xlink="http://www.w3.org/1999/xlink" x="0px"
	 y="0px" viewBox="0 0 750 1334" style="enable-background:new 0 0 750 1334;" xml:space="preserve">
<style type="text/css">
	.st0{fill:#FF0000;}
	.st1{fill:#FFFFFF;}
</style>
<circle class="st0" cx="368.5" cy="562.5" r="278"/>
<g>
	<g>
		<path class="st1" d="M196.9,523.2c-0.8-10-4.3-17.6-10.5-22.6c-6.2-5.1-15-7.6-26.5-7.6c-10.4,0-18.9,2-25.4,6
			c-6.5,4-9.8,9.9-9.8,17.5c0,6.8,2.5,11.9,7.5,15.2c5,3.3,14.6,6.7,28.9,9.9c12.6,2.9,22.9,5.8,30.9,8.8c8,3,14.8,7.7,20.5,14
			c5.7,6.3,8.5,14.9,8.5,25.5c0,13.5-5.2,24.8-15.7,33.8c-10.4,9-24,13.4-40.8,13.4c-21.4,0-37.5-4.9-48.1-14.8
			c-10.6-9.9-16.3-22.7-16.9-38.5l19.1-1.7c0.9,12.6,5.6,21.8,14.1,27.6c8.5,5.8,18.8,8.7,30.9,8.7c11.3,0,20.4-2.4,27.4-7.2
			c7-4.8,10.5-11.3,10.5-19.6c0-8.6-3.6-14.9-10.9-18.8c-7.3-3.9-19.5-7.8-36.7-11.7c-17.2-3.8-29.5-9.2-37.1-16.2
			c-7.6-7-11.3-16-11.3-27.1c0-12.6,4.8-23,14.4-31.3c9.6-8.2,22.6-12.4,39.1-12.4c16.9,0,30.5,4.1,40.8,12.3
			c10.3,8.2,15.8,19.9,16.4,35L196.9,523.2z"/>
		<path class="st1" d="M245.9,623.5c0-8.3,5.7-14,12.7-14s12.7,5.7,12.7,14c0,8-5.7,13.7-12.7,13.7S245.9,631.5,245.9,623.5z"/>
		<path class="st1" d="M368.3,474.2c21.4,0,38.8,7.5,52.4,22.5c13.6,15,20.4,34.7,20.4,59.3c0,24.4-6.8,44.1-20.5,59
			c-13.7,14.9-31.1,22.3-52.3,22.3c-22,0-39.7-7.7-53-23.1c-13.4-15.4-20.1-34.2-20.1-56.5c0-25.9,6.8-46.3,20.3-61.1
			C329,481.7,346.6,474.2,368.3,474.2z M368.1,619.4c15.5,0,28-5.6,37.6-16.8s14.4-26.7,14.5-46.7c0-20.5-4.9-36.3-14.7-47.3
			c-9.8-11-22.1-16.6-37-16.6c-15.3,0-27.8,5.4-37.7,16.2c-9.8,10.8-14.8,27.4-14.8,49.8c0,18.3,4.8,33.1,14.5,44.4
			C340.1,613.8,352.7,619.4,368.1,619.4z"/>
		<path class="st1" d="M464.7,623.5c0-8.3,5.7-14,12.7-14s12.7,5.7,12.7,14c0,8-5.7,13.7-12.7,13.7S464.7,631.5,464.7,623.5z"/>
		<path class="st1" d="M610.8,523.2c-0.8-10-4.3-17.6-10.5-22.6c-6.2-5.1-15-7.6-26.5-7.6c-10.4,0-18.9,2-25.4,6
			c-6.5,4-9.8,9.9-9.8,17.5c0,6.8,2.5,11.9,7.5,15.2c5,3.3,14.6,6.7,28.9,9.9c12.6,2.9,22.9,5.8,30.9,8.8c8,3,14.8,7.7,20.5,14
			c5.7,6.3,8.5,14.9,8.5,25.5c0,13.5-5.2,24.8-15.7,33.8c-10.4,9-24,13.4-40.8,13.4c-21.4,0-37.5-4.9-48.1-14.8
			c-10.6-9.9-16.3-22.7-16.9-38.5l19.1-1.7c0.9,12.6,5.6,21.8,14.1,27.6c8.5,5.8,18.8,8.7,30.9,8.7c11.3,0,20.4-2.4,27.4-7.2
			c7-4.8,10.5-11.3,10.5-19.6c0-8.6-3.6-14.9-10.9-18.8c-7.3-3.9-19.5-7.8-36.7-11.7c-17.2-3.8-29.5-9.2-37.1-16.2
			c-7.6-7-11.3-16-11.3-27.1c0-12.6,4.8-23,14.4-31.3c9.6-8.2,22.6-12.4,39.1-12.4c16.9,0,30.5,4.1,40.8,12.3
			c10.3,8.2,15.8,19.9,16.4,35L610.8,523.2z"/>
	</g>
</g>
</svg>
