<?xml version="1.0" encoding="utf-8"?>
<!-- Generator: Adobe Illustrator 22.0.1, SVG Export Plug-In . SVG Version: 6.00 Build 0)  -->
<svg version="1.1" id="레이어_1" xmlns="http://www.w3.org/2000/svg" xmlns:xlink="http://www.w3.org/1999/xlink" x="0px"
	 y="0px" viewBox="0 0 750 1334" style="enable-background:new 0 0 750 1334;" xml:space="preserve">
<style type="text/css">
	.st0{fill:#FF0000;}
	.st1{fill:#FFFFFF;}
</style>
<circle class="st0" cx="368.5" cy="562.5" r="278"/>
<g>
	<g>
		<path class="st1" d="M125,613.9l19.4-24.2c10.6,9.7,24.4,16.3,36.7,16.3c14.1,0,21-5.8,21-15c0-9.8-8.5-13-21.6-18.6l-19.4-8.6
			c-15.5-6.6-30.2-19.8-30.2-42.5c0-25.8,22.1-46.5,53.3-46.5c17.2,0,35.2,7.1,48.1,20.4l-17.1,22.2c-9.9-7.9-19.2-12.2-31-12.2
			c-11.7,0-19.1,5.1-19.1,14c0,9.6,9.8,13,22.8,18.5l19.1,8c18.3,7.7,29.7,20.4,29.7,42.4c0,25.9-20.7,48.3-56.3,48.3
			C160.9,636.4,140.2,628.8,125,613.9z"/>
		<path class="st1" d="M301,554.9c0-50.9,27.6-80.2,67.9-80.2s67.9,29.4,67.9,80.2c0,50.9-27.6,81.5-67.9,81.5S301,605.9,301,554.9z
			 M402.2,554.9c0-31.3-12.9-49.7-33.3-49.7s-33.3,18.5-33.3,49.7s12.9,51.1,33.3,51.1S402.2,586.2,402.2,554.9z"/>
		<path class="st1" d="M501.3,613.9l19.4-24.2c10.6,9.7,24.4,16.3,36.7,16.3c14.1,0,21-5.8,21-15c0-9.8-8.5-13-21.6-18.6l-19.4-8.6
			c-15.5-6.6-30.2-19.8-30.2-42.5c0-25.8,22.1-46.5,53.3-46.5c17.2,0,35.2,7.1,48.1,20.4l-17.1,22.2c-9.9-7.9-19.2-12.2-31-12.2
			c-11.7,0-19.1,5.1-19.1,14c0,9.6,9.8,13,22.8,18.5l19.1,8c18.3,7.7,29.7,20.4,29.7,42.4c0,25.9-20.7,48.3-56.3,48.3
			C537.2,636.4,516.5,628.8,501.3,613.9z"/>
	</g>
</g>
</svg>
