<?xml version="1.0" encoding="utf-8"?>
<!-- Generator: Adobe Illustrator 22.0.1, SVG Export Plug-In . SVG Version: 6.00 Build 0)  -->
<svg version="1.1" id="Layer_3" xmlns="http://www.w3.org/2000/svg" xmlns:xlink="http://www.w3.org/1999/xlink" x="0px" y="0px"
	 viewBox="0 0 283.5 283.5" style="enable-background:new 0 0 283.5 283.5;" xml:space="preserve">
<style type="text/css">
	.st0{fill:#FFFFFF;stroke:#FFFFFF;stroke-width:10;stroke-linecap:round;stroke-linejoin:round;stroke-miterlimit:10;}
	.st1{fill:#FFFFFF;stroke:#FFFFFF;stroke-miterlimit:10;}
</style>
<path class="st0" d="M141.7,35.4c-39.1,0-70.9,31.7-70.9,70.9S141.7,248,141.7,248s70.9-102.6,70.9-141.7S180.9,35.4,141.7,35.4z
	 M141.7,150.6c-24.5,0-44.3-19.8-44.3-44.3S117.3,62,141.7,62S186,81.8,186,106.3S166.2,150.6,141.7,150.6z"/>
<g>
	<path class="st1" d="M140.9,106.4c-1.3,0-1.4-0.2-1.3-1.4c0.2-1.5,0.3-2.9,0.4-4.4c0.1-1.3,0.2-2.5,0.1-3.8
		c-0.1-2.2-0.3-4.5-0.5-6.7c-0.2-2-0.4-4-0.7-6c-0.3-1.8-0.6-3.5-1-5.2c-0.3-1.6-0.8-3.2-1.1-4.8c-0.1-0.4-0.2-0.8,0.2-1.1
		c0.4-0.3,0.8-0.1,1.2,0.1c1.8,1.1,3.6,2.1,5.3,3.3c1.6,1.1,3.1,2.3,4.5,3.6c1,0.8,1.9,1.6,2.8,2.5c1.2,1.3,2.5,2.6,3.5,4.1
		c1.4,1.9,2.8,3.9,4.1,5.9c1.1,1.9,2.1,3.8,2.9,5.8c0.7,1.5,1.2,3.1,1.7,4.7c0.2,0.7,0.2,1.3-0.9,1.4c-2,0.2-4,0.4-5.9,0.6
		c-1.1,0.1-2.3,0.2-3.4,0.3c-1.5,0.1-3.1,0.3-4.6,0.5c-0.9,0.1-1.8,0.2-2.7,0.2C143.9,106.2,142.4,106.3,140.9,106.4z"/>
	<path class="st1" d="M110.8,113.2c0,0,0.1-0.1,0.1-0.1c0.3-0.3,0.7-0.3,1.1-0.4c1.2-0.1,2.4-0.2,3.6-0.3c1.5-0.1,3.1-0.3,4.6-0.5
		c1-0.1,2-0.2,3-0.3c1.7-0.2,3.4-0.3,5.1-0.5c1.1-0.1,2.2-0.2,3.3-0.3c1.6-0.1,3.2-0.3,4.8-0.5c1.1-0.1,2.1-0.2,3.2-0.3
		c1.6-0.1,3.2-0.3,4.7-0.5c1-0.1,2-0.2,3.1-0.3c1.7-0.2,3.4-0.3,5-0.5c1.1-0.1,2.1-0.2,3.2-0.3c1.6-0.1,3.2-0.3,4.9-0.5
		c1-0.1,2-0.2,3-0.3c1.7-0.2,3.4-0.3,5.1-0.5c1.1-0.1,2.3-0.4,3.4-0.4c0.4,0,0.9,0.2,1.2,0.5c0.3,0.4,0.2,1,0,1.5
		c-0.8,2.5-2.6,4.3-4.7,5.8c-2.3,1.7-4.9,2.9-7.6,4c-0.8,0.3-1.7,0.5-2.5,0.6c-1.1,0.2-2.3,0.1-3.3,0.4c-1.4,0.4-2.7,1-4,1.5
		c-2.6,1.1-5.3,1.2-7.9,0.2c-1.7-0.6-3.2-1.7-5.1-1.9c-1.4-0.1-2.8-0.3-4.1-0.2c-1.9,0.1-3.7,0.9-5.4,1.7c-2,1-4,1.2-6.2,0.5
		c-2.9-1-5.6-2.2-8.1-4c-1.2-0.8-2.7-2-3.4-3.4C110.6,114.1,110.5,113.6,110.8,113.2z"/>
	<path class="st1" d="M135.6,97c0.1,1,0.1,2,0,3c-0.1,1.7-0.2,3.5-0.2,5.2c0,0.3-0.1,0.6-0.1,0.9c-0.2,0.8-0.4,0.9-1.2,1
		c-1.5,0.1-3.1,0.3-4.6,0.5c-1.1,0.1-2.2,0.2-3.3,0.3c-1.6,0.1-3.2,0.3-4.7,0.5c-1.2,0.2-1.7-0.4-1.4-1.6c0.8-3.4,2-6.6,3.7-9.6
		c1.2-2.1,2.5-4.1,4.1-5.9c1.1-1.2,2.2-2.4,3.3-3.6c0.6-0.7,1.4-1.2,2.1-1.8c0.7-0.4,1.3-0.1,1.3,0.7c0.1,1.3,0.3,2.5,0.5,3.8
		c0.1,0.8,0.2,1.7,0.2,2.5C135.4,94.2,135.5,95.6,135.6,97z"/>
	<path class="st1" d="M112.7,126.3c0-1.4,0-2.7,0-4.1c1.2,0.1,2.3,0.1,3.4,0.4c1.2,0.3,2.3,0.8,3.5,1.3c2.9,1.4,5.8,1.4,8.7,0.2
		c1.4-0.6,2.9-1.1,4.3-1.6c0.5-0.2,1-0.2,1.5-0.2c0.9,0,1.8,0,2.6,0c1.6,0,3.1,0.5,4.5,1.1c1.2,0.5,2.5,1.1,3.7,1.4
		c2.1,0.5,4.2,0.3,6.1-0.6c1.7-0.8,3.4-1.6,5.3-1.8c2.4-0.2,4.9-0.2,7.2,0.8c1.2,0.5,2.4,1.1,3.7,1.5c0.8,0.3,1.8,0.3,2.7,0.4
		c0,1.3,0,2.6,0,4c-4.1,0.3-7.4-2.7-11.4-2.8c-4-0.1-7.6,3-11.7,3c-2.6,0-5-1.3-7.5-2.2c-1.9-0.7-4.1-1.2-6.2-0.6
		c-2.2,0.7-4,1.8-6.3,2.2c-2.2,0.3-4.5,0.3-6.6-0.2c-2.3-0.5-4.2-1.6-6.5-2.1C113.4,126.4,113,126.4,112.7,126.3z"/>
</g>
</svg>
