<?xml version="1.0" encoding="utf-8"?>
<!-- Generator: Adobe Illustrator 22.0.0, SVG Export Plug-In . SVG Version: 6.00 Build 0)  -->
<svg version="1.1" id="Layer_1" xmlns="http://www.w3.org/2000/svg" xmlns:xlink="http://www.w3.org/1999/xlink" x="0px" y="0px"
	 viewBox="0 0 512 512" style="enable-background:new 0 0 512 512;" xml:space="preserve">
<style type="text/css">
	.st0{display:none;fill:#FFFFFF;}
	.st1{fill:#FFFFFF;}
</style>
<g>
	<path class="st0" d="M6.9,470.8c0-154.8,0-309.6,0-464.4c167.9,0,335.8,0,503.6,0c0,167.9,0,335.8,0,503.6
		c-167.9,0-335.8,0-503.6,0c0-8.5,0-17,0-25.5c4.1,10.7,12.3,13.8,23.3,13.7c152.2-0.2,304.3-0.1,456.5-0.1c2,0,3.9,0.1,5.9-0.1
		c10.3-0.9,17.1-8.2,17-18.6c-0.3-22.5-4-44.5-13.5-64.8c-29.9-64.3-80.4-100.2-151.6-102.5c-57.7-1.9-115.5-0.4-173.3-0.3
		c-15.6,0-31.1,2.4-45.8,7.6c-63.8,22.3-102.9,66.4-116,133C8.3,458.5,7.7,464.6,6.9,470.8z M257.4,288
		c74.1-0.1,134.5-60.6,134.4-134.7c-0.1-74-60.2-133.9-134.4-134.1c-73.7-0.1-134.4,60.3-134.6,134C122.6,227,183.7,288.1,257.4,288
		z"/>
	<path class="st1" d="M6.9,470.8c0.8-6.1,1.4-12.3,2.6-18.4c13-66.6,52.1-110.8,116-133c14.7-5.1,30.2-7.5,45.8-7.6
		c57.8-0.1,115.6-1.6,173.3,0.3c71.2,2.3,121.6,38.2,151.6,102.5c9.5,20.4,13.2,42.4,13.5,64.8c0.1,10.4-6.7,17.7-17,18.6
		c-2,0.2-3.9,0.1-5.9,0.1c-152.2,0-304.3-0.1-456.5,0.1c-11,0-19.1-3.1-23.3-13.7C6.9,479.9,6.9,475.3,6.9,470.8z M472.1,462.4
		c0.1-8.4-4.6-26.2-10-37.1c-25.5-51.3-66.9-77.5-124.2-78.2c-32.7-0.4-65.4-0.1-98.2-0.1c-23.2,0-46.5-0.5-69.7,0.3
		c-55.3,1.9-104.3,39.4-121,92c-2.3,7.4-3.8,15.1-5.8,23.1C186.9,462.4,329.3,462.4,472.1,462.4z"/>
	<path class="st1" d="M257.4,288c-73.7,0.1-134.8-61.1-134.6-134.7c0.2-73.7,60.9-134.2,134.6-134c74.2,0.1,134.2,60,134.4,134.1
		C391.9,227.4,331.5,288,257.4,288z M257.5,252.6c54.5-0.2,99-44.9,98.9-99.2c-0.1-54.4-44.7-99-99.1-98.9
		c-54.3,0-99.1,44.9-99,99.1C158.4,207.8,203.4,252.8,257.5,252.6z"/>
	<path class="st0" d="M472.1,462.4c-142.8,0-285.2,0-428.8,0c2-8,3.4-15.7,5.8-23.1c16.7-52.6,65.7-90.1,121-92
		c23.2-0.8,46.5-0.3,69.7-0.3c32.7,0,65.5-0.3,98.2,0.1c57.2,0.7,98.7,27,124.2,78.2C467.5,436.2,472.2,454,472.1,462.4z"/>
	<path class="st0" d="M257.5,252.6c-54,0.2-99.1-44.7-99.2-99c-0.1-54.2,44.7-99,99-99.1c54.4,0,99,44.5,99.1,98.9
		C356.5,207.7,311.9,252.3,257.5,252.6z"/>
</g>
</svg>
