<?xml version="1.0" encoding="utf-8"?>
<!-- Generator: Adobe Illustrator 22.0.0, SVG Export Plug-In . SVG Version: 6.00 Build 0)  -->
<svg version="1.1" id="Layer_1" xmlns="http://www.w3.org/2000/svg" xmlns:xlink="http://www.w3.org/1999/xlink" x="0px" y="0px"
	 viewBox="0 0 512 512" style="enable-background:new 0 0 512 512;" xml:space="preserve">
<style type="text/css">
	.st0{display:none;fill:#FFFFFF;}
	.st1{fill:#FFFFFF;}
</style>
<g>
	<path class="st0" d="M408.6,16.8c30.1,0,60.2,0,90.4,0c0,160.9,0,321.9,0,482.9c-160.9,0-321.7,0-482.8,0c0-160.9,0-321.9,0-482.9
		c30.3,0,60.7,0,91.2,0C93.2,22,94.6,34.3,94.9,46c-17.9,0-35,0-52.1,0c-11.2,0-18.1,6.6-18.1,17.8c0.1,39.5-0.3,79.1,0.8,118.6
		c0.7,27.2,11.4,51.2,28.8,72c23.3,27.6,53.2,42.6,89.2,45.7c2.7,0.2,5.7,1.6,7.8,3.3c24.9,21.2,53.4,34.1,85.9,38.2
		c3.4,0.4,4.3,1.7,4.3,5.1c-0.1,38.3-0.1,76.6-0.1,114.8c0,1.4-0.2,2.7-0.3,4.4c-1.7,0-3.1,0-4.5,0c-17.1,0-34.2-0.1-51.3,0
		c-10.4,0.1-17.5,7.3-17.1,17.1c0.3,9.3,7.4,15.7,17.6,15.7c29.8,0.1,59.6,0,89.4,0c18.4,0,36.7,0,55.1,0c7.5,0,13.1-3.3,16-10.2
		c4.7-11-3.3-22.6-15.9-22.7c-16.9-0.2-33.9,0-50.8-0.1c-1.6,0-3.3-0.1-4.9-0.2c-0.2-0.9-0.4-1.4-0.4-1.8c0-39.4,0-78.8-0.1-118.1
		c0-3.4,1.8-3.8,4.3-4.1c32.6-4.2,61.3-17.2,86.3-38.6c1.9-1.6,4.6-2.8,7-3c20.3-1.7,39.5-7,56.9-17.8
		c40.6-25.3,61.4-62.2,62.3-109.8c0.7-36.1,0.2-72.2,0.1-108.3c0-11.7-6.8-18.2-18.6-18.2c-14.1,0-28.2,0-42.4,0c-2.9,0-5.9,0-9.4,0
		C421.7,33.8,422.4,22.1,408.6,16.8z"/>
	<path class="st1" d="M408.6,16.8c13.8,5.2,13.1,17,12.2,29.2c3.6,0,6.5,0,9.4,0c14.1,0,28.2,0,42.4,0c11.8,0,18.6,6.5,18.6,18.2
		c0.1,36.1,0.6,72.2-0.1,108.3c-0.9,47.6-21.7,84.5-62.3,109.8c-17.3,10.8-36.6,16.1-56.9,17.8c-2.4,0.2-5.1,1.4-7,3
		c-25,21.3-53.6,34.4-86.3,38.6c-2.5,0.3-4.3,0.7-4.3,4.1c0.1,39.4,0.1,78.8,0.1,118.1c0,0.5,0.2,0.9,0.4,1.8
		c1.6,0.1,3.2,0.2,4.9,0.2c16.9,0,33.9-0.1,50.8,0.1c12.5,0.1,20.6,11.7,15.9,22.7c-3,6.9-8.5,10.2-16,10.2c-18.4,0-36.7,0-55.1,0
		c-29.8,0-59.6,0-89.4,0c-10.2,0-17.2-6.5-17.6-15.7c-0.3-9.8,6.8-17,17.1-17.1c17.1-0.1,34.2,0,51.3,0c1.4,0,2.8,0,4.5,0
		c0.1-1.7,0.3-3,0.3-4.4c0-38.3,0-76.6,0.1-114.8c0-3.4-0.9-4.6-4.3-5.1c-32.5-4.1-61-17.1-85.9-38.2c-2.1-1.8-5.1-3.1-7.8-3.3
		c-36-3.1-65.9-18.1-89.2-45.7c-17.5-20.8-28.1-44.8-28.8-72c-1.1-39.5-0.7-79.1-0.8-118.6c0-11.2,6.9-17.7,18.1-17.8
		C60,46,77,46,94.9,46c-0.4-11.7-1.7-24,12.4-29.2C207.7,16.8,308.2,16.8,408.6,16.8z M128,50c-0.1,1.4-0.2,2.5-0.2,3.6
		c0,41.9-0.1,83.8,0,125.6c0.1,35.1,12.1,65.7,36.5,91c25.7,26.6,57.4,39.9,94.2,40c30.1,0,57.4-9.6,80.8-28.7
		c29.9-24.5,47.3-56.2,48.3-95c1.2-44.7,0.4-89.4,0.5-134.1c0-0.7-0.2-1.5-0.3-2.4C301.2,50,214.8,50,128,50z M57.8,79
		c-0.1,1.3-0.2,2.2-0.2,3.1c0,30.4-0.2,60.8,0.1,91.3c0.2,23.8,8.3,44.8,24.2,62.6c9.2,10.3,20.1,18.1,33.7,24
		c-1.2-2.4-1.8-3.9-2.6-5.4c-11.3-21.9-17.7-45.2-18-69.9c-0.3-33.4-0.2-66.8-0.2-100.2c0-1.8,0-3.6,0-5.5C82.2,79,70.3,79,57.8,79z
		 M401.1,259.6c0.8-0.3,1.4-0.5,1.9-0.8c35.9-17.9,54.5-47,55.2-87c0.5-29.3,0.1-58.6,0.1-88c0-1.5-0.1-3-0.2-4.5
		c-12.5,0-24.7,0-37.1,0c0,2.2,0,4.1,0,6c0,30.7-0.1,61.5,0,92.2c0.1,18-2.1,35.7-8,52.7C409.6,240,405.2,249.5,401.1,259.6z"/>
	<path class="st0" d="M128,50c86.9,0,173.2,0,259.9,0c0.1,0.9,0.3,1.7,0.3,2.4c-0.1,44.7,0.7,89.4-0.5,134.1
		c-1,38.8-18.4,70.5-48.3,95c-23.4,19.1-50.6,28.8-80.8,28.7c-36.8,0-68.6-13.4-94.2-40c-24.4-25.3-36.4-55.9-36.5-91
		c-0.1-41.9,0-83.8,0-125.6C127.8,52.5,127.9,51.4,128,50z"/>
	<path class="st0" d="M57.8,79c12.5,0,24.4,0,37.1,0c0,1.9,0,3.7,0,5.5c0,33.4-0.1,66.8,0.2,100.2c0.2,24.7,6.7,47.9,18,69.9
		c0.8,1.5,1.4,3,2.6,5.4c-13.7-5.9-24.6-13.7-33.7-24c-15.9-17.8-24-38.8-24.2-62.6c-0.3-30.4-0.1-60.8-0.1-91.3
		C57.6,81.3,57.7,80.4,57.8,79z"/>
	<path class="st0" d="M401.1,259.6c4.1-10.1,8.5-19.6,11.9-29.4c5.9-17,8.1-34.7,8-52.7c-0.1-30.7,0-61.5,0-92.2c0-1.9,0-3.7,0-6
		c12.4,0,24.5,0,37.1,0c0.1,1.5,0.2,3,0.2,4.5c0,29.3,0.4,58.7-0.1,88c-0.7,40-19.3,69.1-55.2,87
		C402.5,259.1,401.9,259.3,401.1,259.6z"/>
</g>
</svg>
