<?xml version="1.0" encoding="utf-8"?>
<!-- Generator: Adobe Illustrator 22.0.0, SVG Export Plug-In . SVG Version: 6.00 Build 0)  -->
<svg version="1.1" id="Layer_1" xmlns="http://www.w3.org/2000/svg" xmlns:xlink="http://www.w3.org/1999/xlink" x="0px" y="0px"
	 viewBox="0 0 512 512" style="enable-background:new 0 0 512 512;" xml:space="preserve">
<style type="text/css">
	.st0{fill:#FFFFFF;}
	.st1{display:none;fill:#FFFFFF;}
</style>
<g>
	<path class="st0" d="M342.5,506.2c-56.6,0-113.2,0-169.8,0c-4.9-2.3-6.4-6.3-6.2-11.4c0.2-4.3,0-8.7,0-13
		c0.1-8.5,2.9-11.3,11.3-11.3c16.7,0,33.4,0,50.2,0c3.7,0,7.3,0,11.2,0c0-43.7,0-86.8,0-129.9c-7.2-1.5-14.2-2.5-21-4.4
		c-53.6-14.8-90.8-48.3-111.6-99.8c-6.1-15.2-9.4-31-10.1-47.4c-0.2-4.2-1.3-6.5-5.8-7.8c-5.5-1.6-10.8-4.2-15.6-7.3
		c-18-11.4-28.5-28.8-36.5-47.9C26.2,96.4,21.5,65.2,20,33.5c-0.7-14.4,5.9-21.4,20.2-21.2c33.7,0.3,67.5,1.3,101.2,1.2
		c88.4-0.2,176.8-0.8,265.2-1.2c24.1-0.1,48.2-0.1,72.4,0c11.3,0,18.6,7.4,18.2,18.5c-1.3,32.9-6,65.3-18.9,95.9
		c-8.1,19.4-18.9,37-37.6,48.2c-6.4,3.8-13.6,6.3-21.2,9.7c-3.1,38.7-15.4,74.5-42.7,104.1c-27.3,29.7-61.3,46.5-101.2,51.7
		c0,43.5,0,86.6,0,129.9c1.5,0.1,2.6,0.2,3.7,0.2c19.6,0,39.2,0,58.9,0c6.9,0,10,3.2,10.1,10.1c0.1,4.5-0.2,9,0.1,13.5
		C348.8,499.3,347.1,503.4,342.5,506.2z M422.1,46.7c0,33.3,0,66,0,99.2c8.6-4.9,14.2-11.9,18.7-19.7c9.4-16.4,14.1-34.3,17.4-52.7
		c1.6-8.7,2.6-17.6,3.9-26.7C448.3,46.7,435.4,46.7,422.1,46.7z M95.2,146c0-33.5,0-66.2,0-99.1c-13.4,0-26.6,0-40,0
		c0.6,5.1,1.1,9.7,1.7,14.3c2.9,20.4,7.3,40.4,16.3,59.1C78.2,130.5,84.6,139.6,95.2,146z"/>
	<path class="st1" d="M342.5,506.2c4.6-2.8,6.3-6.9,5.9-12.2c-0.3-4.5,0-9-0.1-13.5c-0.1-6.9-3.2-10-10.1-10.1
		c-19.6-0.1-39.2,0-58.9,0c-1.1,0-2.2-0.1-3.7-0.2c0-43.3,0-86.4,0-129.9c39.9-5.2,73.9-21.9,101.2-51.7
		c27.3-29.7,39.6-65.5,42.7-104.1c7.6-3.4,14.8-5.9,21.2-9.7c18.7-11.1,29.5-28.8,37.6-48.2c12.9-30.6,17.6-63,18.9-95.9
		c0.4-11.2-6.9-18.5-18.2-18.5c-24.1-0.1-48.2-0.1-72.4,0c-88.4,0.4-176.8,1-265.2,1.2c-33.7,0.1-67.5-0.8-101.2-1.2
		C25.9,12.1,19.3,19.1,20,33.5c1.5,31.8,6.2,63,18.5,92.6c8,19.1,18.4,36.5,36.5,47.9c4.8,3.1,10.2,5.6,15.6,7.3
		c4.5,1.3,5.6,3.6,5.8,7.8c0.6,16.3,4,32.2,10.1,47.4c20.8,51.5,57.9,85,111.6,99.8c6.8,1.9,13.8,2.9,21,4.4c0,43,0,86.2,0,129.9
		c-3.9,0-7.5,0-11.2,0c-16.7,0-33.4,0-50.2,0c-8.4,0-11.2,2.8-11.3,11.3c0,4.3,0.1,8.7,0,13c-0.2,5.1,1.4,9.1,6.2,11.4
		c-53.7,0-107.4,0-161.1,0c0-164.9,0-329.9,0-494.9c164.9,0,329.8,0,494.8,0c0,164.9,0,329.9,0,494.9
		C451.8,506.2,397.2,506.2,342.5,506.2z"/>
	<path class="st1" d="M422.1,46.7c13.2,0,26.2,0,40.1,0c-1.3,9.1-2.3,18-3.9,26.7c-3.3,18.4-8,36.4-17.4,52.7
		c-4.5,7.9-10.1,14.8-18.7,19.7C422.1,112.7,422.1,80,422.1,46.7z"/>
	<path class="st1" d="M95.2,146c-10.7-6.4-17-15.5-22-25.7c-9-18.7-13.4-38.7-16.3-59.1c-0.6-4.6-1.1-9.2-1.7-14.3
		c13.4,0,26.6,0,40,0C95.2,79.8,95.2,112.5,95.2,146z"/>
</g>
</svg>
