<?xml version="1.0" encoding="UTF-8" standalone="no"?>
<!-- Created with Inkscape (http://www.inkscape.org/) -->

<svg
   xmlns:dc="http://purl.org/dc/elements/1.1/"
   xmlns:cc="http://creativecommons.org/ns#"
   xmlns:rdf="http://www.w3.org/1999/02/22-rdf-syntax-ns#"
   xmlns:svg="http://www.w3.org/2000/svg"
   xmlns="http://www.w3.org/2000/svg"
   xmlns:sodipodi="http://sodipodi.sourceforge.net/DTD/sodipodi-0.dtd"
   xmlns:inkscape="http://www.inkscape.org/namespaces/inkscape"
   width="100mm"
   height="100mm"
   viewBox="0 0 100 100"
   version="1.1"
   id="svg3738"
   inkscape:version="0.92.2 (5c3e80d, 2017-08-06)"
   sodipodi:docname="championship_white_transparent.svg">
  <defs
     id="defs3732" />
  <sodipodi:namedview
     id="base"
     pagecolor="#ffffff"
     bordercolor="#666666"
     borderopacity="1.0"
     inkscape:pageopacity="0.0"
     inkscape:pageshadow="2"
     inkscape:zoom="1.8101934"
     inkscape:cx="265.69547"
     inkscape:cy="22.951096"
     inkscape:document-units="mm"
     inkscape:current-layer="layer1"
     showgrid="true"
     inkscape:window-width="2736"
     inkscape:window-height="1732"
     inkscape:window-x="-12"
     inkscape:window-y="40"
     inkscape:window-maximized="1">
    <inkscape:grid
       type="xygrid"
       id="grid3755" />
  </sodipodi:namedview>
  <metadata
     id="metadata3735">
    <rdf:RDF>
      <cc:Work
         rdf:about="">
        <dc:format>image/svg+xml</dc:format>
        <dc:type
           rdf:resource="http://purl.org/dc/dcmitype/StillImage" />
        <dc:title></dc:title>
      </cc:Work>
    </rdf:RDF>
  </metadata>
  <g
     inkscape:label="Layer 1"
     inkscape:groupmode="layer"
     id="layer1"
     transform="translate(0,-197)">
    <path
       inkscape:connector-curvature="0"
       class="st1"
       d="m 82.242876,196.99998 c 2.957148,1.07861 2.807146,3.52625 2.614292,6.05683 0.77143,0 1.392859,0 2.014287,0 3.021437,0 6.042867,0 9.085735,0 2.528568,0 3.985716,1.34828 3.985716,3.77516 0.0214,7.48807 0.128584,14.97616 -0.0214,22.46422 -0.19287,9.87349 -4.650018,17.52751 -13.35003,22.77538 -3.707155,2.24019 -7.842871,3.33956 -12.19288,3.69218 -0.514287,0.0415 -1.092863,0.2904 -1.5,0.62227 -5.357159,4.41818 -11.485739,7.13546 -18.492897,8.00664 -0.535708,0.0623 -0.921424,0.1452 -0.921424,0.85046 0.02147,8.17258 0.02147,16.34516 0.02147,24.497 0,0.10371 0.04285,0.18668 0.08571,0.37336 0.342855,0.0207 0.685718,0.0415 1.050002,0.0415 3.621437,0 7.264294,-0.0208 10.88573,0.0207 2.678575,0.0207 4.414298,2.42689 3.407153,4.70857 C 68.271481,296.3155 67.092907,297 65.485757,297 c -3.942861,0 -7.864299,0 -11.80716,0 -6.385722,0 -12.771452,0 -19.157174,0 -2.185719,0 -3.685718,-1.34828 -3.771438,-3.25658 -0.06431,-2.03278 1.457148,-3.52625 3.664296,-3.54699 3.664287,-0.0207 7.328583,0 10.992871,0 0.300003,0 0.600006,0 0.964291,0 0.02147,-0.35262 0.06431,-0.62228 0.06431,-0.91268 0,-7.94441 0,-15.88882 0.02147,-23.81249 0,-0.70525 -0.192862,-0.95415 -0.921433,-1.05788 -6.964265,-0.85039 -13.071415,-3.54692 -18.407142,-7.92361 -0.449996,-0.37336 -1.092854,-0.64302 -1.67143,-0.6845 C 17.742883,255.16225 11.335731,252.05085 6.3428666,246.3259 2.592861,242.01143 0.3214291,237.03322 0.17142912,231.39124 -0.06428582,223.1979 0.02142834,214.98383 0,206.79051 c 0,-2.32317 1.4785738,-3.67143 3.878575,-3.69218 3.6642964,-0.0415 7.307154,-0.0415 11.142881,-0.0415 -0.08572,-2.42687 -0.364293,-4.97822 2.657144,-6.05683 21.514324,0 43.05007,0 64.564393,0 z m -60.128675,6.88654 c -0.02146,0.29039 -0.04284,0.51857 -0.04284,0.74673 0,8.69115 -0.02147,17.3823 0,26.0527 0.02147,7.28066 2.592863,13.62789 7.821449,18.87576 5.50715,5.51753 12.300017,8.2763 20.185747,8.29704 6.450004,0 12.300017,-1.99129 17.314311,-5.95313 6.407154,-5.08192 10.135732,-11.65732 10.350015,-19.70545 0.257146,-9.27195 0.08572,-18.54389 0.107154,-27.81582 0,-0.1452 -0.04285,-0.31115 -0.06431,-0.49783 -18.557179,0 -37.071495,0 -55.671523,0 z m -15.0428814,6.01534 c -0.021462,0.26966 -0.042843,0.45635 -0.042843,0.64303 0,6.30574 -0.042843,12.6115 0.021462,18.93799 0.042843,4.93674 1.7785803,9.29268 5.1857244,12.98487 1.971435,2.13648 4.307154,3.75441 7.221442,4.97823 -0.257143,-0.49783 -0.385715,-0.80898 -0.557146,-1.12011 -2.421432,-4.54263 -3.79286,-9.37565 -3.85715,-14.49908 -0.0643,-6.92802 -0.04284,-13.85604 -0.04284,-20.78408 0,-0.37337 0,-0.74673 0,-1.14085 -2.700005,0 -5.2500084,0 -7.9285811,0 z M 80.635735,247.363 c 0.171432,-0.0623 0.300003,-0.10372 0.407145,-0.16594 7.692868,-3.71292 11.678589,-9.74902 11.82859,-18.04606 0.107142,-6.07758 0.02147,-12.15517 0.02147,-18.25349 0,-0.31113 -0.02147,-0.62227 -0.04284,-0.93341 -2.678575,0 -5.292868,0 -7.950012,0 0,0.45634 0,0.85044 0,1.24456 0,6.36797 -0.02147,12.75669 0,19.12467 0.02138,3.73367 -0.450004,7.40511 -1.714291,10.93135 -0.72857,2.03277 -1.671431,4.00331 -2.550003,6.09832 z"
       id="path6"
       style="fill:#ffffff;stroke-width:0.21082808" />
    <path
       style="fill:#ffffff;stroke-width:0.55242717"
       d="m 126.37511,377.10619 c -4.13545,-1.12462 -6.97051,-3.32487 -8.4904,-6.58926 -2.37475,-5.10048 -1.56765,-10.12845 2.2365,-13.9326 4.04283,-4.04283 4.66895,-4.12383 31.87453,-4.12383 h 23.6541 v -48.02171 c 0,-40.75476 -0.11875,-48.14045 -0.78471,-48.80642 -0.43598,-0.43599 -3.56616,-1.21013 -7.04345,-1.74197 -22.55466,-3.44966 -43.38009,-12.55274 -63.04746,-27.55891 -5.020063,-3.8303 -5.252215,-3.91745 -12.817092,-4.81159 C 68.295125,218.72316 47.856231,209.31043 31.68191,193.76137 28.141554,190.35787 23.799357,185.80414 22.032585,183.64198 12.372907,171.8205 5.6113582,158.27749 2.7658468,145.05176 0.90100157,136.3841 0.55941817,126.00027 0.55697865,77.904189 0.55481479,35.242233 0.60834123,32.765504 1.5777567,30.671666 2.8334912,27.959408 5.0696105,25.801753 7.9881971,24.486165 9.9840883,23.586493 12.449857,23.474088 33.470846,23.324504 L 56.743784,23.158895 56.99621,16.695378 C 57.354404,7.5235413 58.993975,4.2692347 64.731727,1.3415133 L 67.337388,0.01195757 H 188.91717 c 110.91667,0 121.73483,0.07839538 123.34773,0.89385733 3.52961,1.784533 5.50878,3.7191309 6.93726,6.7810333 1.29063,2.7664258 1.44417,3.7592688 1.43682,9.2904598 l -0.008,6.193022 23.76999,0.159891 c 23.24966,0.156391 23.8195,0.186388 26.032,1.370307 3.00126,1.605994 5.54476,4.586989 6.38482,7.483059 0.99222,3.420629 0.98442,92.311253 -0.009,100.134683 -1.68306,13.25743 -4.55433,23.14108 -9.7895,33.69805 -4.68128,9.44002 -9.59175,16.25511 -17.35486,24.08626 -18.21774,18.37742 -39.32379,28.57475 -64.91019,31.36121 -6.38568,0.69543 -7.19104,1.03082 -12.60844,5.25087 -18.17356,14.15686 -38.93442,23.26776 -61.27725,26.8915 -5.67061,0.91971 -7.53906,1.43758 -8.28786,2.29712 -0.90449,1.03825 -0.96232,3.92512 -0.89813,44.82837 0.0377,24.04526 0.22419,45.4588 0.41432,47.58564 l 0.34571,3.86699 24.58301,0.27622 c 26.05846,0.29279 25.88201,0.27438 29.5656,3.08399 2.25949,1.72341 4.68488,6.37015 4.68488,8.97567 0,4.71061 -2.98209,9.50031 -7.37902,11.85186 l -2.28845,1.22391 -61.31942,0.10793 c -48.30419,0.085 -61.87013,-0.0418 -63.91405,-0.59767 z m 81.26754,-148.42148 c 41.86554,-7.1369 76.96089,-40.13222 84.59956,-79.53728 1.85592,-9.57397 2.15623,-19.6145 2.1681,-72.486202 l 0.0114,-50.685193 H 188.88872 83.355754 l 0.164855,57.590533 0.164855,57.590532 1.276345,6.04647 c 4.47967,21.22173 14.127673,38.44395 30.080031,53.6945 16.56949,15.84054 37.95899,26.02015 59.50315,28.31851 3.19027,0.34034 6.54626,0.72105 7.45777,0.84603 3.9597,0.54291 19.166,-0.27429 25.63989,-1.3779 z M 73.450817,190.40043 c 0,-0.1094 -1.591067,-3.52754 -3.535699,-7.59587 -4.365418,-9.13281 -7.05086,-16.30288 -9.138538,-24.3997 -3.518221,-13.64503 -3.504322,-13.40887 -3.753964,-63.789749 L 56.79474,48.625549 H 41.619122 26.443503 l 0.199522,42.398786 c 0.221919,47.158275 0.06933,45.110295 4.202362,56.401445 6.209986,16.96524 19.664168,31.96909 36.317163,40.50023 4.741549,2.42904 6.288267,3.03767 6.288267,2.47442 z m 236.019033,-2.07749 c 9.05488,-4.5527 18.23076,-11.56219 24.35488,-18.60477 6.30173,-7.24683 10.26219,-14.21672 13.35015,-23.49449 3.81211,-11.45353 3.78744,-11.10507 4.00714,-56.589202 l 0.19817,-41.026509 -15.35911,0.146897 -15.3591,0.146897 -0.30553,46.956309 c -0.26921,41.373628 -0.41985,47.580258 -1.26706,52.204368 -2.05463,11.21423 -4.2513,18.08315 -10.42331,32.5932 -2.13245,5.01328 -3.98715,9.3015 -4.12155,9.52937 -0.43573,0.73879 0.3229,0.45198 4.92532,-1.86207 z"
       id="path3757"
       inkscape:connector-curvature="0"
       transform="matrix(0.26458333,0,0,0.26458333,0,197)" />
  </g>
</svg>
