<?xml version="1.0" encoding="utf-8"?>
<!-- Generator: Adobe Illustrator 22.0.1, SVG Export Plug-In . SVG Version: 6.00 Build 0)  -->
<svg version="1.1" id="레이어_1" xmlns="http://www.w3.org/2000/svg" xmlns:xlink="http://www.w3.org/1999/xlink" x="0px"
	 y="0px" viewBox="0 0 750 1334" style="enable-background:new 0 0 750 1334;" xml:space="preserve">
<style type="text/css">
	.st0{display:none;fill:#FFFFFF;}
	.st1{fill:#FFFFFF;}
</style>
<g>
	<path class="st0" d="M580.8,563.6c0,102.9,0,205.9,0,308.8c-136.8,0-273.6,0-410.4,0c0-136.5,0-273.1,0-409.6
		c136.8,0,273.6,0,410.4,0c0,32.5,0,65.1,0,97.6c-0.3-1.3-0.9-2.5-0.9-3.8c-0.6-11-3.9-21.1-9.6-30.5c-7.3-12.1-17.7-21.3-28-30.6
		c-17.7-16-38.6-21.2-61.9-16.3c-14.1,2.9-25.8,10.2-36,20.4c-31.2,31.2-62.3,62.5-93.6,93.6c-17.5,17.4-25.2,38.1-21.7,62.7
		c2.1,15,8.9,27.8,19.5,38.5c4.4,4.5,10.7,4.4,15.1,0.3c4.3-3.9,4.6-10.4,0.8-15.2c-1.3-1.7-2.9-3.1-4.2-4.8
		c-15.4-20-13.5-46.3,4.6-64.6c24.1-24.2,48.2-48.3,72.4-72.4c8-8,15.9-16.1,24.1-24c19.8-19.2,48.8-19.2,68.6,0
		c5.1,4.9,10.1,9.9,15,15c18.5,19.7,18.2,48.3-0.7,67.7c-5.1,5.3-10.4,10.4-15.5,15.6c-27,27-53.9,53.9-80.9,80.9
		c-5.4,5.4-5.6,11.5-1,16.2c4.4,4.5,11,4.5,16-0.5c32.4-32.3,64.7-64.6,97-97c9.5-9.6,15.9-21,18.8-34.2
		C579.5,572.8,580.1,568.2,580.8,563.6z M423.9,690.9c0-19.2-6.6-35.5-19.5-49.2c-3.1-3.3-6.7-5-11.4-3.7c-7.2,2-11.5,11.4-3.6,19.9
		c17.1,18.2,17.6,46.7,0.2,64.6c-33.1,34-67,67.2-100.5,100.8c-0.5,0.5-1,0.9-1.5,1.3c-18.1,15.2-44.3,15.4-62,0
		c-7.4-6.4-14.3-13.6-20.9-20.9c-7.9-8.8-11.3-19.6-11.1-31.3c0.3-13.7,5.8-25.1,15.5-34.8c31.2-31,62.2-62.2,93.3-93.3
		c1.2-1.2,2.5-2.4,3.6-3.8c2.7-3.6,3.3-7.5,1.1-11.6c-2-3.8-5.2-5.8-9.7-5.9c-4-0.1-6.7,2.1-9.3,4.7c-26.7,26.7-53.4,53.3-80,80
		c-6.5,6.5-13.1,12.9-19.3,19.7c-19.5,21.6-22.9,55.9-7.7,80.7c9.6,15.5,22.8,27.8,37.4,38.4c9.8,7.1,21.3,10.4,33.3,11.1
		c21.7,1.2,40.2-6.3,55.5-21.7c31.8-31.9,63.7-63.7,95.5-95.6C416.6,726.6,423.8,710,423.9,690.9z"/>
	<path class="st1" d="M578.5,577.3c-2.9,13.2-9.2,24.6-18.8,34.2c-32.3,32.4-64.6,64.7-97,97c-5,4.9-11.5,5-16,0.5
		c-4.7-4.8-4.4-10.9,1-16.2c26.9-27,53.9-53.9,80.9-80.9c5.2-5.2,10.4-10.3,15.5-15.6c18.8-19.4,19.1-47.9,0.7-67.7
		c-4.8-5.2-9.9-10.1-15-15c-19.8-19.2-48.8-19.2-68.6,0c-8.1,7.9-16.1,16-24.1,24c-24.1,24.1-48.3,48.2-72.4,72.4
		c-18.2,18.3-20,44.7-4.6,64.6c1.3,1.7,2.9,3.2,4.2,4.8c3.8,4.8,3.5,11.2-0.8,15.2c-4.4,4.1-10.7,4.2-15.1-0.3
		c-10.6-10.7-17.3-23.5-19.5-38.5c-3.5-24.6,4.2-45.3,21.7-62.7c31.3-31.1,62.5-62.4,93.6-93.6c10.1-10.2,21.8-17.5,36-20.4
		c23.3-4.8,44.2,0.3,61.9,16.3c10.3,9.3,20.7,18.5,28,30.6c5.7,9.4,9,19.5,9.6,30.5C579.9,557.9,579.5,572.8,578.5,577.3z"/>
	<path class="st1" d="M423.9,690.9c-0.1,19.1-7.2,35.7-20.9,49.4c-31.8,31.9-63.7,63.7-95.5,95.6c-15.3,15.4-33.8,22.9-55.5,21.7
		c-12-0.7-23.5-4-33.3-11.1c-14.6-10.6-27.8-22.9-37.4-38.4c-15.3-24.7-11.8-59,7.7-80.7c6.2-6.8,12.8-13.2,19.3-19.7
		c26.7-26.7,53.3-53.3,80-80c2.6-2.6,5.3-4.8,9.3-4.7c4.5,0.1,7.6,2.1,9.7,5.9c2.2,4,1.6,8-1.1,11.6c-1,1.4-2.3,2.5-3.6,3.8
		c-31.1,31.1-62.2,62.3-93.3,93.3c-9.7,9.7-15.3,21.1-15.5,34.8c-0.2,11.7,3.2,22.5,11.1,31.3c6.6,7.3,13.4,14.5,20.9,20.9
		c17.7,15.4,43.9,15.1,62,0c0.5-0.4,1-0.9,1.5-1.3c33.6-33.6,67.4-66.8,100.5-100.8c17.4-17.9,16.9-46.4-0.2-64.6
		c-7.9-8.4-3.7-17.9,3.6-19.9c4.7-1.3,8.3,0.4,11.4,3.7C417.3,655.4,423.9,671.6,423.9,690.9z"/>
</g>
</svg>
