<?xml version="1.0" encoding="utf-8"?>
<!-- Generator: Adobe Illustrator 22.0.1, SVG Export Plug-In . SVG Version: 6.00 Build 0)  -->
<svg version="1.1" id="레이어_1" xmlns="http://www.w3.org/2000/svg" xmlns:xlink="http://www.w3.org/1999/xlink" x="0px"
	 y="0px" viewBox="0 0 512 512" style="enable-background:new 0 0 512 512;" xml:space="preserve">
<style type="text/css">
	.st0{fill:#FFFFFF;}
</style>
<g>
	<g>
		<path class="st0" d="M48.8,506.1c-14.3,0-28.6,0-43,0c0-167,0-334,0-501c167,0,334,0,501,0c0,167,0,334,0,501
			c-14.6,0-29.3,0-43.9,0c0.1-3.7,0.1-7.5,0.3-11.2c1.3-28.7-3.7-56.4-14.3-82.9c-18.2-45.4-48.6-80.4-91.1-104.6
			c-41.6-23.6-86.4-31.8-133.6-24.4c-44.7,7-83.3,26.8-115.2,58.9c-29.2,29.4-47.9,64.4-56.4,105C48.4,466.5,47.9,486.3,48.8,506.1z
			 M257.6,6.2c-70.3-1.5-129,55.9-130.8,127.7c-1.7,70,55.3,129.4,125.6,131c72.9,1.6,132.3-55.3,133-128.7
			C386.1,65.5,329.6,7.5,257.6,6.2z"/>
		<path d="M48.8,506.1c-1-19.9-0.5-39.6,3.7-59.2c8.5-40.5,27.2-75.6,56.4-105c31.9-32.1,70.5-51.9,115.2-58.9
			c47.2-7.4,92,0.8,133.6,24.4c42.5,24.1,72.9,59.2,91.1,104.6c10.7,26.6,15.6,54.3,14.3,82.9c-0.2,3.7-0.2,7.5-0.3,11.2
			C324.9,506.1,186.8,506.1,48.8,506.1z M443.5,485.5c-3.6-67.1-31.5-120.7-88.8-155.8c-67.1-41.1-136.1-39.9-202.1,2.7
			C98,367.6,71.6,420.5,68.2,485.5C193.6,485.5,318.2,485.5,443.5,485.5z"/>
		<path d="M257.6,6.2c72,1.3,128.5,59.3,127.9,130c-0.6,73.4-60.1,130.4-133,128.7c-70.3-1.6-127.3-61-125.6-131
			C128.6,62.1,187.3,4.7,257.6,6.2z M256.2,244.7c60.2,0.1,109-49,109.1-109.9c0.1-59.3-49.1-108.2-109.2-108.2
			C196,26.5,146.8,75.9,147,136C147.1,196.1,195.8,244.6,256.2,244.7z"/>
		<path class="st0" d="M443.5,485.5c-125.3,0-249.9,0-375.3,0c3.4-65,29.8-117.9,84.5-153.1c65.9-42.5,134.9-43.8,202.1-2.7
			C412,364.8,439.9,418.4,443.5,485.5z"/>
		<path class="st0" d="M256.2,244.7c-60.4-0.1-109-48.5-109.2-108.7C146.8,75.9,196,26.5,256.1,26.5c60,0,109.3,48.9,109.2,108.2
			C365.1,195.7,316.4,244.8,256.2,244.7z"/>
	</g>
</g>
</svg>
