<?xml version="1.0" encoding="utf-8"?>
<!-- Generator: Adobe Illustrator 22.0.1, SVG Export Plug-In . SVG Version: 6.00 Build 0)  -->
<svg version="1.1" id="icon" xmlns="http://www.w3.org/2000/svg" xmlns:xlink="http://www.w3.org/1999/xlink" x="0px" y="0px"
	 viewBox="0 0 283.5 283.5" style="enable-background:new 0 0 283.5 283.5;" xml:space="preserve">
<style type="text/css">
	.st0{fill:#FFFFFF;}
</style>
<path class="st0" d="M25.3,283.5c-0.6-11.3-0.3-22.5,2.1-33.6c4.8-23,15.4-42.9,32-59.5c18.1-18.2,40-29.5,65.3-33.4
	c29.9-4.6,57.8,1.5,83,18.3c26,17.3,42.5,41.5,49.7,71.9c2.3,9.7,3.3,19.6,2.8,29.6c-0.1,2.2-0.1,4.4-0.2,6.6
	C181.8,283.5,103.6,283.5,25.3,283.5z M36.6,271.7c70.9,0,141.6,0,212.3,0c-0.8-56.8-47.4-104.9-106.6-104.6
	C82.6,167.4,37.4,215.8,36.6,271.7z"/>
<path class="st0" d="M148.2,0c7.1,1.7,14.6,2.5,21.4,5.3c25.5,10.5,41.1,29.5,45.6,56.7c3.9,23.6-2.8,44.5-19.3,61.8
	c-16.5,17.4-37.2,25.3-61,22.3c-31-3.9-51.8-21.2-61.9-50.7c-9.2-26.8,0.1-58.6,21.5-77c11.8-10.2,25.3-16.2,40.8-17.9
	c0.6-0.1,1.2-0.3,1.9-0.4C140.9,0,144.6,0,148.2,0z M142.9,135.2c34.2,0,61.8-27.9,61.8-62.4c0-33.6-27.9-61.3-61.9-61.3
	c-34.1,0-62,28.1-61.8,62.1C81.2,107.9,108.7,135.3,142.9,135.2z"/>
</svg>
