<?xml version="1.0" encoding="utf-8"?>
<!-- Generator: Adobe Illustrator 22.0.1, SVG Export Plug-In . SVG Version: 6.00 Build 0)  -->
<svg version="1.1" id="레이어_1" xmlns="http://www.w3.org/2000/svg" xmlns:xlink="http://www.w3.org/1999/xlink" x="0px"
	 y="0px" viewBox="0 0 512 512" style="enable-background:new 0 0 512 512;" xml:space="preserve">
<style type="text/css">
	.st0{fill:#FFFFFF;}
</style>
<g>
	<g>
		<path class="st0" d="M4.9,45.7c0-14.1,0-28.1,0-42.2c167.9,0,335.8,0,503.6,0c0,168.5,0,337.1,0,505.6c-167.9,0-335.8,0-503.6,0
			c0-5.2,0-10.5,0-15.7c2.7,4.9,6.9,6.1,12.3,6.1c90-0.1,180-0.1,269.9-0.1c1.8,0,3.7,0.1,5.4-0.3c4.3-1,6.9-3.9,6.8-8.3
			c0-4.4-2.4-7.4-6.9-8.2c-2.2-0.4-4.6-0.4-6.8-0.4c-85.6,0-171.1,0-256.7,0c-2.1,0-4.1,0-6.3,0c0-113.3,0-226,0-338.7
			c138.6,0,276.9,0,415.5,0c0,2.3,0,4.3,0,6.2c0,34.8,0,69.7,0,104.5c0,7.1,3.5,11.3,9,11.1c5.3-0.2,8.4-4.2,8.4-11.2
			c0-67.9,0-135.8,0-203.7c0-8.4-3.1-11.4-11.6-11.5c-11.6-0.1-23.2,0-34.8,0c-1.7,0-3.5-0.1-5.6-0.2c0-7.8,0-15.1,0-22.4
			c0-9.2-2.8-11.9-12.1-11.9c-18,0-36,0-54,0c-8.9,0-11.7,2.8-11.8,11.7c0,7.5,0,15,0,22.6c-63.9,0-127.1,0-190.8,0
			c0-8,0.1-15.6,0-23.3c-0.1-8-3.1-11-11-11c-18.7,0-37.3,0-56,0C60,4.5,57,7.6,56.9,15.6c0,7.6,0,15.3,0,23.5c-2.3,0-4,0-5.8,0
			c-11.5,0-22.9,0.1-34.4,0C11.5,38.9,7.2,40.4,4.9,45.7z M238.8,282.5c52.4,0,104,0,155.7,0c0-32.3,0-63.9,0-95.9
			c-109.6,0-219,0-328.5,0c0,84.1,0,167.9,0,251.6c57.7,0,115.1,0,172.8,0c0-26,0-51.7,0-77.4C238.8,335.1,238.8,309.3,238.8,282.5z
			 M402.9,300c-57.5,0.8-104.2,48-103.4,104.7c0.8,57.6,47.8,103.9,104.7,103.3c57.4-0.6,103.9-47.7,103.3-104.6
			C507,346,459.6,299.3,402.9,300z"/>
		<path d="M4.9,45.7c2.2-5.3,6.6-6.7,11.9-6.7c11.5,0.1,22.9,0,34.4,0c1.8,0,3.5,0,5.8,0c0-8.2,0-15.8,0-23.5
			c0-8,3.1-11.1,10.9-11.1c18.7,0,37.3,0,56,0c7.9,0,10.9,3,11,11c0.1,7.7,0,15.3,0,23.3c63.7,0,127,0,190.8,0c0-7.6,0-15.1,0-22.6
			c0-8.9,2.8-11.7,11.8-11.7c18,0,36,0,54,0c9.3,0,12.1,2.7,12.1,11.9c0,7.3,0,14.7,0,22.4c2.1,0.1,3.8,0.2,5.6,0.2
			c11.6,0,23.2,0,34.8,0c8.5,0,11.6,3.1,11.6,11.5c0,67.9,0,135.8,0,203.7c0,6.9-3.1,11-8.4,11.2c-5.4,0.2-9-4.1-9-11.1
			c0-34.8,0-69.7,0-104.5c0-1.9,0-3.9,0-6.2c-138.6,0-276.9,0-415.5,0c0,112.7,0,225.4,0,338.7c2.2,0,4.2,0,6.3,0
			c85.6,0,171.1,0,256.7,0c2.3,0,4.6,0,6.8,0.4c4.5,0.8,6.9,3.8,6.9,8.2c0,4.5-2.5,7.4-6.8,8.3c-1.7,0.4-3.6,0.3-5.4,0.3
			c-90,0-180,0-269.9,0.1c-5.4,0-9.6-1.2-12.3-6.1C4.9,344.1,4.9,194.9,4.9,45.7z M22.5,125.5c138.5,0,276.8,0,415.3,0
			c0-23.1,0-45.8,0-68.8c-11.5,0-22.7,0-33.8,0c-0.2,0.6-0.4,0.9-0.4,1.1c0,7.2-0.1,14.4-0.1,21.6c0,8.7-2.8,11.5-11.4,11.5
			c-18,0-36,0-54,0c-10,0-12.5-2.4-12.5-12.4c0-7.3,0-14.6,0-21.9c-63.9,0-127.1,0-190.2,0c-0.2,0.6-0.5,0.9-0.5,1.2
			c-0.1,7.2-0.1,14.4-0.1,21.6C134.8,88.2,132,91,123.4,91c-18.2,0-36.3,0-54.5,0c-9.3,0-12-2.7-12-11.9c0-7.5,0-14.9,0-22.3
			c-11.9,0-23.1,0-34.4,0C22.5,79.8,22.5,102.5,22.5,125.5z M117.4,22.2c-14.4,0-28.5,0-42.8,0c0,17.2,0,34.2,0,51.3
			c14.4,0,28.5,0,42.8,0C117.4,56.2,117.4,39.3,117.4,22.2z M343,73.4c14.5,0,28.6,0,42.8,0c0-17.3,0-34.2,0-51.2
			c-14.4,0-28.5,0-42.8,0C343,39.4,343,56.2,343,73.4z"/>
		<path d="M238.8,282.5c0,26.7,0,52.6,0,78.4c0,25.7,0,51.3,0,77.4c-57.7,0-115.1,0-172.8,0c0-83.7,0-167.5,0-251.6
			c109.5,0,218.9,0,328.5,0c0,32,0,63.6,0,95.9C342.8,282.5,291.2,282.5,238.8,282.5z M161.1,265.1c20.4,0,40.2,0,60.3,0
			c0-20.2,0-40,0-60c-20.3,0-40.2,0-60.3,0C161.1,225.2,161.1,245,161.1,265.1z M299.2,205c-20.2,0-40.1,0-60.1,0
			c0,20.2,0,40,0,60.2c20.1,0,40,0,60.1,0C299.2,245.1,299.2,225.2,299.2,205z M83.1,265.1c20.3,0,40.1,0,60.1,0c0-20.2,0-40,0-60.2
			c-20.1,0-39.9,0-60.1,0C83.1,225,83.1,244.8,83.1,265.1z M317.4,204.9c0,20.4,0,40.4,0,60.4c20.2,0,39.9,0,59.9,0
			c0-20.2,0-40.2,0-60.4C357.2,204.9,337.5,204.9,317.4,204.9z M83.2,282.9c0,20.3,0,40.2,0,60.1c20.2,0,40,0,60,0
			c0-20.2,0-40,0-60.1C123.1,282.9,103.4,282.9,83.2,282.9z M221.4,283.1c-20.2,0-40.2,0-60.1,0c0,20.3,0,40.1,0,59.9
			c20.2,0,40.1,0,60.1,0C221.4,322.8,221.4,303.1,221.4,283.1z M143.1,421.2c0-20.5,0-40.3,0-60.1c-20.2,0-40.1,0-59.9,0
			c0,20.3,0,40.1,0,60.1C103.4,421.2,123.1,421.2,143.1,421.2z M221.4,361.1c-20.3,0-40.2,0-60.1,0c0,20.2,0,40.1,0,60
			c20.2,0,40,0,60.1,0C221.4,401,221.4,381.1,221.4,361.1z"/>
		<path d="M402.9,300c56.7-0.8,104,46,104.6,103.4c0.6,56.9-45.9,104-103.3,104.6c-56.9,0.6-103.9-45.7-104.7-103.3
			C298.7,348,345.4,300.8,402.9,300z M490.1,404.1c0-47.7-38.5-86.4-86.3-86.6c-47.8-0.2-86.8,38.7-86.9,86.6
			c0,47.7,38.5,86.3,86.3,86.6C451.1,490.9,490.1,452.1,490.1,404.1z"/>
		<path class="st0" d="M22.5,125.5c0-23,0-45.7,0-68.7c11.3,0,22.5,0,34.4,0c0,7.4,0,14.8,0,22.3c0,9.2,2.7,11.9,12,11.9
			c18.2,0,36.3,0,54.5,0c8.6,0,11.3-2.8,11.4-11.5c0.1-7.2,0.1-14.4,0.1-21.6c0-0.3,0.2-0.6,0.5-1.2c63.1,0,126.3,0,190.2,0
			c0,7.3,0,14.6,0,21.9c0,9.9,2.5,12.3,12.5,12.4c18,0,36,0,54,0c8.6,0,11.3-2.9,11.4-11.5c0-7.2,0-14.4,0.1-21.6
			c0-0.3,0.2-0.6,0.4-1.1c11.1,0,22.3,0,33.8,0c0,22.9,0,45.7,0,68.8C299.3,125.5,161.1,125.5,22.5,125.5z"/>
		<path class="st0" d="M117.4,22.2c0,17.2,0,34.1,0,51.3c-14.3,0-28.4,0-42.8,0c0-17.2,0-34.1,0-51.3C88.9,22.2,103,22.2,117.4,22.2
			z"/>
		<path class="st0" d="M343,73.4c0-17.3,0-34.1,0-51.2c14.3,0,28.4,0,42.8,0c0,17,0,33.9,0,51.2C371.7,73.4,357.6,73.4,343,73.4z"/>
		<path class="st0" d="M161.1,265.1c0-20.1,0-39.9,0-60c20,0,40,0,60.3,0c0,20,0,39.8,0,60C201.3,265.1,181.5,265.1,161.1,265.1z"/>
		<path class="st0" d="M299.2,205c0,20.2,0,40.1,0,60.2c-20.1,0-40,0-60.1,0c0-20.1,0-40,0-60.2C259.1,205,279,205,299.2,205z"/>
		<path class="st0" d="M83.1,265.1c0-20.3,0-40.1,0-60.2c20.2,0,40,0,60.1,0c0,20.1,0,40,0,60.2C123.3,265.1,103.4,265.1,83.1,265.1
			z"/>
		<path class="st0" d="M317.4,204.9c20.1,0,39.8,0,59.9,0c0,20.1,0,40.1,0,60.4c-20,0-39.7,0-59.9,0
			C317.4,245.3,317.4,225.3,317.4,204.9z"/>
		<path class="st0" d="M83.2,282.9c20.2,0,40,0,60,0c0,20.1,0,39.9,0,60.1c-19.9,0-39.8,0-60,0C83.2,323.1,83.2,303.3,83.2,282.9z"
			/>
		<path class="st0" d="M221.4,283.1c0,20,0,39.8,0,59.9c-20,0-39.9,0-60.1,0c0-19.8,0-39.6,0-59.9
			C181.2,283.1,201.2,283.1,221.4,283.1z"/>
		<path class="st0" d="M143.1,421.2c-20,0-39.7,0-59.9,0c0-20,0-39.8,0-60.1c19.8,0,39.7,0,59.9,0
			C143.1,380.9,143.1,400.8,143.1,421.2z"/>
		<path class="st0" d="M221.4,361.1c0,20,0,39.8,0,60c-20.1,0-39.9,0-60.1,0c0-19.9,0-39.8,0-60
			C181.2,361.1,201.1,361.1,221.4,361.1z"/>
		<path class="st0" d="M490.1,404.1c0,48-39,86.8-86.8,86.5c-47.8-0.2-86.3-38.8-86.3-86.6c0-47.9,39-86.8,86.9-86.6
			C451.6,317.7,490.2,356.4,490.1,404.1z M412.3,395.3c0-2.5,0-4.3,0-6.1c0-11.9,0.1-23.9,0-35.8c-0.1-8-7-12.4-13.2-8.6
			c-3.7,2.3-4.2,6-4.2,9.8c0,15.5,0,31.1,0,46.6c0,8.4,3.2,11.5,11.6,11.5c15,0,30.1,0,45.1,0c8.2,0,12.4-2.8,12.6-8.5
			c0.2-5.8-4.2-9-12.6-9C438.7,395.3,425.8,395.3,412.3,395.3z"/>
		<path d="M412.3,395.3c13.5,0,26.4,0,39.3,0c8.4,0,12.8,3.2,12.6,9c-0.2,5.7-4.4,8.5-12.6,8.5c-15,0-30.1,0-45.1,0
			c-8.4,0-11.6-3.1-11.6-11.5c-0.1-15.5,0-31.1,0-46.6c0-3.9,0.5-7.5,4.2-9.8c6.2-3.8,13.1,0.5,13.2,8.6c0.2,11.9,0,23.9,0,35.8
			C412.3,391,412.3,392.8,412.3,395.3z"/>
	</g>
</g>
</svg>
