<?xml version="1.0" encoding="utf-8"?>
<!-- Generator: Adobe Illustrator 22.0.1, SVG Export Plug-In . SVG Version: 6.00 Build 0)  -->
<svg version="1.1" id="icon" xmlns="http://www.w3.org/2000/svg" xmlns:xlink="http://www.w3.org/1999/xlink" x="0px" y="0px"
	 viewBox="0 0 283.5 283.5" style="enable-background:new 0 0 283.5 283.5;" xml:space="preserve">
<style type="text/css">
	.st0{fill:#FFFFFF;}
</style>
<path class="st0" d="M0,24.1c1.3-3,3.7-3.8,6.7-3.7c6.4,0.1,12.9,0,19.3,0c1,0,2,0,3.2,0c0-4.6,0-8.9,0-13.1C29.3,2.8,31,1,35.4,1
	c10.5,0,21,0,31.5,0c4.5,0,6.1,1.7,6.2,6.2c0,4.3,0,8.6,0,13c35.9,0,71.5,0,107.4,0c0-4.3,0-8.5,0-12.7c0-5,1.6-6.5,6.6-6.6
	c10.1,0,20.3,0,30.4,0c5.2,0,6.8,1.5,6.8,6.7c0,4.1,0,8.2,0,12.6c1.2,0.1,2.1,0.1,3.1,0.1c6.5,0,13.1,0,19.6,0
	c4.8,0,6.5,1.7,6.5,6.4c0,38.1,0,76.1,0,114.2c0,3.9-1.7,6.2-4.7,6.3c-3,0.1-5-2.3-5-6.3c0-19.5,0-39.1,0-58.6c0-1.1,0-2.2,0-3.5
	c-78,0-155.9,0-233.9,0c0,63.2,0,126.3,0,189.9c1.2,0,2.4,0,3.5,0c48.2,0,96.3,0,144.5,0c1.3,0,2.6,0,3.9,0.2
	c2.5,0.4,3.9,2.1,3.9,4.6c0,2.5-1.4,4.1-3.9,4.7c-1,0.2-2,0.2-3,0.2c-50.6,0-101.3,0-151.9,0.1c-3,0-5.4-0.7-6.9-3.4
	C0,191.5,0,107.8,0,24.1z M9.9,68.9c78,0,155.8,0,233.7,0c0-12.9,0-25.7,0-38.6c-6.5,0-12.8,0-19,0c-0.1,0.3-0.2,0.5-0.2,0.6
	c0,4,0,8.1-0.1,12.1c0,4.9-1.6,6.5-6.4,6.5c-10.1,0-20.3,0-30.4,0c-5.7,0-7-1.4-7-6.9c0-4.1,0-8.2,0-12.3c-36,0-71.6,0-107.1,0
	c-0.1,0.3-0.3,0.5-0.3,0.7c0,4,0,8.1-0.1,12.1c0,4.9-1.6,6.4-6.4,6.4c-10.2,0-20.4,0-30.7,0c-5.2,0-6.7-1.5-6.8-6.7
	c0-4.2,0-8.4,0-12.5c-6.7,0-13,0-19.4,0C9.9,43.3,9.9,56,9.9,68.9z M63.3,11c-8.1,0-16,0-24.1,0c0,9.7,0,19.1,0,28.8
	c8.1,0,16,0,24.1,0C63.3,30.1,63.3,20.6,63.3,11z M190.3,39.7c8.2,0,16.1,0,24.1,0c0-9.7,0-19.2,0-28.7c-8.1,0-16,0-24.1,0
	C190.3,20.6,190.3,30,190.3,39.7z"/>
<path class="st0" d="M131.7,156.8c0,15,0,29.5,0,43.9c0,14.4,0,28.8,0,43.4c-32.5,0-64.8,0-97.3,0c0-46.9,0-93.9,0-141.1
	c61.6,0,123.2,0,184.9,0c0,17.9,0,35.7,0,53.8C190.2,156.8,161.2,156.8,131.7,156.8z M87.9,147c11.5,0,22.6,0,33.9,0
	c0-11.3,0-22.5,0-33.7c-11.4,0-22.6,0-33.9,0C87.9,124.7,87.9,135.7,87.9,147z M165.7,113.3c-11.4,0-22.6,0-33.8,0
	c0,11.3,0,22.4,0,33.7c11.3,0,22.5,0,33.8,0C165.7,135.8,165.7,124.7,165.7,113.3z M44,147c11.4,0,22.6,0,33.8,0
	c0-11.3,0-22.5,0-33.7c-11.3,0-22.5,0-33.8,0C44,124.5,44,135.7,44,147z M175.9,113.2c0,11.4,0,22.6,0,33.8c11.3,0,22.4,0,33.7,0
	c0-11.3,0-22.5,0-33.8C198.3,113.2,187.2,113.2,175.9,113.2z M44.1,157c0,11.4,0,22.5,0,33.7c11.4,0,22.5,0,33.8,0
	c0-11.3,0-22.4,0-33.7C66.5,157,55.4,157,44.1,157z M121.9,157.1c-11.4,0-22.6,0-33.8,0c0,11.4,0,22.5,0,33.6c11.4,0,22.6,0,33.8,0
	C121.9,179.4,121.9,168.3,121.9,157.1z M77.8,234.5c0-11.5,0-22.6,0-33.7c-11.4,0-22.6,0-33.7,0c0,11.4,0,22.5,0,33.7
	C55.4,234.5,66.5,234.5,77.8,234.5z M121.8,200.8c-11.4,0-22.6,0-33.8,0c0,11.3,0,22.5,0,33.6c11.4,0,22.5,0,33.8,0
	C121.8,223.2,121.8,212.1,121.8,200.8z"/>
<path class="st0" d="M224,166.3c31.9-0.4,58.6,25.8,58.9,58c0.3,31.9-25.8,58.3-58.2,58.7c-32,0.3-58.5-25.6-58.9-57.9
	C165.4,193.2,191.6,166.7,224,166.3z M273.1,224.6c0-26.7-21.7-48.4-48.6-48.6c-26.9-0.1-48.9,21.7-48.9,48.5
	c0,26.8,21.7,48.4,48.6,48.5C251.2,273.3,273.1,251.5,273.1,224.6z"/>
<path class="st0" d="M229.3,219.7c7.6,0,14.9,0,22.1,0c4.7,0,7.2,1.8,7.1,5c-0.1,3.2-2.5,4.8-7.1,4.8c-8.5,0-16.9,0-25.4,0
	c-4.7,0-6.5-1.7-6.6-6.4c0-8.7,0-17.4,0-26.1c0-2.2,0.3-4.2,2.4-5.5c3.5-2.1,7.4,0.3,7.4,4.8c0.1,6.7,0,13.4,0,20.1
	C229.3,217.3,229.3,218.3,229.3,219.7z"/>
</svg>
