<?xml version="1.0" encoding="utf-8"?>
<!-- Generator: Adobe Illustrator 22.0.1, SVG Export Plug-In . SVG Version: 6.00 Build 0)  -->
<svg version="1.1" id="레이어_1" xmlns="http://www.w3.org/2000/svg" xmlns:xlink="http://www.w3.org/1999/xlink" x="0px"
	 y="0px" viewBox="0 0 512 512" style="enable-background:new 0 0 512 512;" xml:space="preserve">
<style type="text/css">
	.st0{fill:#FFFFFF;}
</style>
<g>
	<g>
		<path class="st0" d="M389.3,4.9c38.8,0,77.5,0,116.3,0c0,167,0,334,0,501.1c-165.8,0-331.6,0-497.3,0c0-8,0-16,0-24.1
			c2.5,5.4,7,6.4,12.4,6.4c67.5-0.1,135.1,0,202.6-0.1c1.9,0,3.9-0.1,5.8-0.5c3.7-0.8,5.8-3.3,6.2-7.1c0.4-4-1.4-7.1-5.1-8.4
			c-2.2-0.8-4.7-0.9-7.1-0.9c-63.8,0-127.6,0-191.4,0c-1.9,0-3.8,0-5.9,0c0-110.4,0-220.5,0-330.5c134.6,0,268.8,0,403.4,0
			c0,2.2,0,4.1,0,6c0,45.6,0,91.1,0,136.7c0,6.4,3.4,10.3,8.5,10.2c4.9-0.1,8.2-3.9,8.2-10c0-78.4,0-156.7,0-235.1
			c0-7-3-9.9-10.1-10c-11.6-0.1-23.3,0-34.9,0c-1.7,0-3.4-0.1-5.4-0.2c0-7.6-0.2-14.7,0.1-21.8C395.5,11.4,394,7.5,389.3,4.9z
			 M386.5,183.8c-106.5,0-212.7,0-318.8,0c0,82,0,163.6,0,245.3c56,0,111.6,0,167.9,0c0-25.5,0-50.8,0-76.5c25.5,0,50.3,0,75.6,0
			c0-25.6,0-50.8,0-76.6c25.4,0,50.3,0,75.4,0C386.5,244.9,386.5,214.4,386.5,183.8z M324.5,496c0,7.6,6.6,11,13.6,7.5
			c17.7-8.9,35.5-17.8,53.1-26.9c2.9-1.5,5.1-1.5,8.1,0c17.2,8.9,34.5,17.6,51.8,26.3c3.9,2,7.7,3.6,11.7,0.4
			c3.8-3,3.3-6.9,2.6-11.1c-3.4-18.6-6.7-37.1-9.8-55.8c-0.3-1.8,0.6-4.5,1.9-5.8c13.9-13.7,28-27.2,42.1-40.7
			c3.1-3,6.2-5.9,4.7-10.8c-1.5-4.9-5.5-5.9-9.8-6.5c-19.3-2.7-38.7-5.4-58-8c-3.1-0.4-4.9-1.5-6.3-4.3c-8.6-17-17.4-33.9-25.9-50.9
			c-1.9-3.7-4.2-6.6-8.6-6.7c-4.7-0.1-7.1,2.9-9.1,6.8c-7.5,14.8-15.6,29.4-22.5,44.5c-3.6,7.9-8.6,10.9-17,11.7
			c-17.8,1.8-35.5,4.6-53.2,7.5c-2.6,0.4-6.2,3.1-6.9,5.5c-0.7,2.6,0.5,6.7,2.4,9c4.1,5.1,9,9.6,13.8,14.1
			c9.8,9.4,19.7,18.7,29.7,27.8c2.3,2.1,3,4.1,2.4,7.1c-2,10-3.6,20-5.4,30C327.9,476.8,326.2,486.7,324.5,496z"/>
		<path d="M389.3,4.9c4.6,2.5,6.2,6.5,6,11.7c-0.3,7.1-0.1,14.2-0.1,21.8c2,0.1,3.7,0.2,5.4,0.2c11.6,0,23.3,0,34.9,0
			c7.1,0,10.1,3,10.1,10c0,78.4,0,156.7,0,235.1c0,6.2-3.2,9.9-8.2,10c-5.1,0.1-8.5-3.8-8.5-10.2c0-45.6,0-91.1,0-136.7
			c0-1.9,0-3.8,0-6c-134.6,0-268.8,0-403.4,0c0,110,0,220.1,0,330.5c2.1,0,4,0,5.9,0c63.8,0,127.6,0,191.4,0c2.4,0,4.9,0.1,7.1,0.9
			c3.8,1.3,5.5,4.4,5.1,8.4c-0.4,3.8-2.5,6.3-6.2,7.1c-1.9,0.4-3.8,0.5-5.8,0.5c-67.5,0-135.1,0-202.6,0.1c-5.4,0-9.9-1-12.4-6.4
			c0-145.8,0-291.5,0-437.3c2.6-4.9,6.7-6.3,12-6.1c8.2,0.3,16.5,0.1,24.7,0.1c4.5,0,8.9,0,13.8,0c0-7.6,0.2-14.5-0.1-21.4
			C58.5,12,60,7.8,64.5,4.9c21.3,0,42.7,0,64,0c4.8,2.4,6.2,6.4,6,11.6c-0.3,7.2-0.1,14.4-0.1,21.8c62,0,123.4,0,185.1,0
			c0-7.3,0.2-14.2-0.1-21.1c-0.2-5.3,1.2-9.5,5.9-12.3C346.7,4.9,368,4.9,389.3,4.9z M25.4,123.3c134.7,0,268.9,0,403.2,0
			c0-22.8,0-45.2,0-67.9c-5.9,0-11.4,0-16.8,0c-5.4,0-10.8,0-16.5,0c0,8,0,15.2,0,22.5c0,9.7-2.6,12.2-12.5,12.2
			c-16.8,0-33.6,0-50.4,0c-10.4,0-12.8-2.5-12.8-12.9c0-7.2,0-14.4,0-21.5c-62,0-123.3,0-185.1,0c0,7.9,0,15.4,0,23
			c0,8.5-2.8,11.4-11.3,11.4c-17.6,0-35.2,0-52.8,0c-8.6,0-11.5-3-11.6-11.7c0-7.5,0-15.1,0-22.6c-11.5,0-22.3,0-33.4,0
			C25.4,78.3,25.4,100.6,25.4,123.3z M336.7,72.8c14.1,0,27.7,0,41.5,0c0-17.1,0-33.9,0-50.9c-14,0-27.6,0-41.5,0
			C336.7,39,336.7,55.7,336.7,72.8z M117.5,21.7c-13.4,0-26.3-0.1-39.2,0.2c-0.9,0-2.5,2.5-2.5,3.9c-0.2,10.5-0.1,21-0.1,31.5
			c0,5.1,0,10.2,0,15.6c14.3,0,27.9,0,41.8,0C117.5,55.8,117.5,39.1,117.5,21.7z"/>
		<path class="st0" d="M325.4,4.9c-4.7,2.8-6.1,7-5.9,12.3c0.3,6.9,0.1,13.8,0.1,21.1c-61.7,0-123.1,0-185.1,0
			c0-7.4-0.2-14.6,0.1-21.8c0.2-5.2-1.3-9.1-6-11.6C194.1,4.9,259.7,4.9,325.4,4.9z"/>
		<path class="st0" d="M64.5,4.9c-4.6,2.9-6,7-5.8,12.3c0.3,6.9,0.1,13.8,0.1,21.4c-4.8,0-9.3,0-13.8,0c-8.2,0-16.5,0.2-24.7-0.1
			c-5.3-0.2-9.4,1.2-12,6.1c0-13.3,0-26.5,0-39.8C27.1,4.9,45.8,4.9,64.5,4.9z"/>
		<path d="M386.5,183.8c0,30.6,0,61.1,0,92.2c-25.1,0-50,0-75.4,0c0,25.8,0,51,0,76.6c-25.3,0-50.1,0-75.6,0c0,25.7,0,51,0,76.5
			c-56.3,0-111.9,0-167.9,0c0-81.7,0-163.4,0-245.3C173.9,183.8,280,183.8,386.5,183.8z M142.7,276.5c-19.6,0-39,0-58.5,0
			c0,19.9,0,39.3,0,58.9c19.7,0,39,0,58.5,0C142.7,315.5,142.7,296.1,142.7,276.5z M160,335.4c19.6,0,39,0,58.3,0
			c0-20,0-39.5,0-58.9c-19.7,0-38.9,0-58.3,0C160,296.3,160,315.8,160,335.4z M294,335.6c0-20,0-39.6,0-59.1c-19.6,0-38.9,0-58.3,0
			c0,19.9,0,39.4,0,59.1C255.2,335.6,274.4,335.6,294,335.6z M142.8,353.1c-19.8,0-39.1,0-58.4,0c0,19.9,0,39.5,0,59
			c19.7,0,38.9,0,58.4,0C142.8,392.3,142.8,372.9,142.8,353.1z M218.5,353.1c-19.8,0-39.1,0-58.3,0c0,19.9,0,39.4,0,59
			c19.7,0,38.9,0,58.3,0C218.5,392.3,218.5,372.9,218.5,353.1z M142.7,200.6c-19.6,0-38.8,0-58.4,0c0,19.5,0,38.8,0,58.1
			c19.7,0,39.1,0,58.4,0C142.7,239.2,142.7,220,142.7,200.6z M160,200.7c0,19.6,0,38.8,0,58.2c19.6,0,38.9,0,58.4,0
			c0-19.5,0-38.8,0-58.2C198.8,200.7,179.6,200.7,160,200.7z M294.1,258.9c0-19.7,0-38.9,0-58.3c-19.5,0-38.8,0-58.3,0
			c0,19.6,0,38.9,0,58.3C255.3,258.9,274.5,258.9,294.1,258.9z M369.8,200.8c-19.7,0-39,0-58.4,0c0,19.6,0,38.7,0,58.1
			c19.6,0,38.9,0,58.4,0C369.8,239.4,369.8,220.3,369.8,200.8z"/>
		<path d="M324.5,496c1.7-9.3,3.4-19.2,5.1-29c1.8-10,3.5-20,5.4-30c0.6-3-0.1-5-2.4-7.1c-10-9.2-19.9-18.5-29.7-27.8
			c-4.8-4.5-9.7-9-13.8-14.1c-1.8-2.3-3.1-6.4-2.4-9c0.7-2.4,4.3-5.1,6.9-5.5c17.7-2.9,35.4-5.7,53.2-7.5c8.4-0.9,13.4-3.8,17-11.7
			c6.8-15.1,15-29.7,22.5-44.5c2-3.9,4.4-6.9,9.1-6.8c4.4,0.1,6.8,3,8.6,6.7c8.6,17,17.4,33.9,25.9,50.9c1.4,2.8,3.2,3.9,6.3,4.3
			c19.4,2.6,38.7,5.3,58,8c4.3,0.6,8.4,1.6,9.8,6.5c1.5,4.9-1.6,7.8-4.7,10.8c-14.1,13.5-28.2,27-42.1,40.7c-1.3,1.3-2.2,4-1.9,5.8
			c3.1,18.6,6.5,37.2,9.8,55.8c0.8,4.1,1.2,8.1-2.6,11.1c-4,3.2-7.9,1.6-11.7-0.4c-17.3-8.7-34.6-17.4-51.8-26.3
			c-2.9-1.5-5.1-1.5-8.1,0c-17.6,9.1-35.4,18-53.1,26.9C331.1,507,324.6,503.6,324.5,496z M313.5,387.3c6.4,6.6,12.3,12.8,18.3,18.7
			c5.6,5.5,11.5,10.9,17.3,16.3c3.2,3,4.7,6.2,3.7,10.8c-1.5,7.1-2.6,14.3-3.9,21.4c-1.5,8.7-3,17.4-4.6,26.9c2.4-1.1,4-1.7,5.5-2.5
			c13-6.6,26-13,38.8-19.8c4.6-2.4,8.7-2.4,13.3-0.1c13.3,6.9,26.7,13.6,40.1,20.4c1.2,0.6,2.4,1,4.1,1.7c-0.3-2.1-0.4-3.6-0.6-5
			c-2.4-13.5-4.7-27-7.3-40.5c-1.2-5.9-0.3-10.5,4.6-14.7c7.5-6.4,14.5-13.3,21.6-20.2c4.3-4.2,8.3-8.7,12.9-13.5
			c-16.5-2.3-32.2-4.8-48-6.7c-6.3-0.7-9.7-3.8-12.3-9.2c-6.8-13.9-14-27.6-21.4-42c-1.2,2.1-2.1,3.5-2.9,5
			c-6.6,12.9-13.3,25.8-19.8,38.8c-2.1,4.1-4.9,6.3-9.6,7C346.8,382.4,330.5,384.9,313.5,387.3z"/>
		<path class="st0" d="M25.4,123.3c0-22.8,0-45,0-67.6c11.1,0,21.9,0,33.4,0c0,7.6,0,15.1,0,22.6c0,8.7,3,11.7,11.6,11.7
			c17.6,0,35.2,0,52.8,0c8.4,0,11.2-2.9,11.3-11.4c0-7.6,0-15.1,0-23c61.7,0,123,0,185.1,0c0,7.1,0,14.3,0,21.5
			c0,10.4,2.5,12.9,12.8,12.9c16.8,0,33.6,0,50.4,0c9.9,0,12.4-2.5,12.5-12.2c0-7.3,0-14.5,0-22.5c5.7,0,11.1,0,16.5,0
			c5.5,0,11,0,16.8,0c0,22.7,0,45.2,0,67.9C294.3,123.3,160.1,123.3,25.4,123.3z"/>
		<path class="st0" d="M336.7,72.8c0-17.2,0-33.9,0-50.9c13.9,0,27.5,0,41.5,0c0,16.9,0,33.7,0,50.9
			C364.4,72.8,350.7,72.8,336.7,72.8z"/>
		<path class="st0" d="M117.5,21.7c0,17.4,0,34.1,0,51.2c-13.9,0-27.5,0-41.8,0c0-5.4,0-10.5,0-15.6c0-10.5-0.1-21,0.1-31.5
			c0-1.4,1.6-3.9,2.5-3.9C91.3,21.6,104.2,21.7,117.5,21.7z"/>
		<path class="st0" d="M142.7,276.5c0,19.6,0,39,0,58.9c-19.4,0-38.8,0-58.5,0c0-19.6,0-39,0-58.9
			C103.7,276.5,123.1,276.5,142.7,276.5z"/>
		<path class="st0" d="M160,335.4c0-19.7,0-39.1,0-58.9c19.4,0,38.7,0,58.3,0c0,19.4,0,39,0,58.9C199,335.4,179.6,335.4,160,335.4z"
			/>
		<path class="st0" d="M294,335.6c-19.6,0-38.8,0-58.3,0c0-19.7,0-39.2,0-59.1c19.4,0,38.7,0,58.3,0C294,296,294,315.6,294,335.6z"
			/>
		<path class="st0" d="M142.8,353.1c0,19.8,0,39.2,0,59c-19.5,0-38.7,0-58.4,0c0-19.5,0-39.1,0-59
			C103.7,353.1,123,353.1,142.8,353.1z"/>
		<path class="st0" d="M218.5,353.1c0,19.7,0,39.2,0,59c-19.4,0-38.7,0-58.3,0c0-19.5,0-39.1,0-59
			C179.4,353.1,198.7,353.1,218.5,353.1z"/>
		<path class="st0" d="M142.7,200.6c0,19.4,0,38.5,0,58.1c-19.4,0-38.7,0-58.4,0c0-19.3,0-38.6,0-58.1
			C103.9,200.6,123.2,200.6,142.7,200.6z"/>
		<path class="st0" d="M160,200.7c19.5,0,38.8,0,58.4,0c0,19.4,0,38.7,0,58.2c-19.5,0-38.7,0-58.4,0C160,239.5,160,220.2,160,200.7z
			"/>
		<path class="st0" d="M294.1,258.9c-19.6,0-38.8,0-58.3,0c0-19.4,0-38.7,0-58.3c19.5,0,38.8,0,58.3,0
			C294.1,220.1,294.1,239.2,294.1,258.9z"/>
		<path class="st0" d="M369.8,200.8c0,19.5,0,38.6,0,58.1c-19.5,0-38.8,0-58.4,0c0-19.4,0-38.5,0-58.1
			C330.8,200.8,350.1,200.8,369.8,200.8z"/>
		<path class="st0" d="M313.5,387.3c17.1-2.4,33.3-4.9,49.7-7c4.7-0.6,7.6-2.9,9.6-7c6.5-13,13.2-25.9,19.8-38.8
			c0.8-1.5,1.7-3,2.9-5c7.4,14.4,14.6,28.1,21.4,42c2.6,5.4,6,8.4,12.3,9.2c15.8,1.8,31.6,4.3,48,6.7c-4.6,4.8-8.6,9.3-12.9,13.5
			c-7.1,6.9-14.1,13.8-21.6,20.2c-4.9,4.2-5.7,8.7-4.6,14.7c2.7,13.5,4.9,27,7.3,40.5c0.2,1.4,0.4,2.8,0.6,5
			c-1.7-0.7-2.9-1.1-4.1-1.7c-13.4-6.8-26.8-13.5-40.1-20.4c-4.6-2.4-8.7-2.3-13.3,0.1c-12.9,6.7-25.9,13.2-38.8,19.8
			c-1.5,0.8-3.1,1.4-5.5,2.5c1.6-9.5,3.1-18.2,4.6-26.9c1.2-7.2,2.3-14.3,3.9-21.4c1-4.5-0.5-7.8-3.7-10.8
			c-5.8-5.4-11.7-10.7-17.3-16.3C325.7,400.1,319.9,393.9,313.5,387.3z"/>
	</g>
</g>
</svg>
