<?xml version="1.0" encoding="utf-8"?>
<!-- Generator: Adobe Illustrator 22.0.1, SVG Export Plug-In . SVG Version: 6.00 Build 0)  -->
<svg version="1.1" id="icon" xmlns="http://www.w3.org/2000/svg" xmlns:xlink="http://www.w3.org/1999/xlink" x="0px" y="0px"
	 viewBox="0 0 283.5 283.5" style="enable-background:new 0 0 283.5 283.5;" xml:space="preserve">
<style type="text/css">
	.st0{fill:#FFFFFF;}
</style>
<path class="st0" d="M218.1,0.6c2.7,1.4,3.5,3.7,3.4,6.7c-0.2,4,0,8.1,0,12.5c1.1,0.1,2.1,0.1,3.1,0.1c6.6,0,13.3,0,19.9,0
	c4.1,0,5.8,1.7,5.8,5.7c0,44.2,0,88.4,0,132.6c0,3.5-1.8,5.7-4.7,5.7c-2.9,0.1-4.8-2.2-4.8-5.8c0-25.6,0-51.3,0-76.9
	c0-1.1,0-2.2,0-3.4c-76.9,0-153.5,0-230.4,0c0,62.3,0,124.6,0,187.1c1.2,0,2.3,0,3.4,0c36.3,0,72.7,0,109,0c1.3,0,2.6,0,3.8,0.3
	c2.3,0.6,3.6,2.3,3.4,4.7c-0.1,2.4-1.4,4-3.8,4.4c-1,0.2-2,0.2-3,0.2c-38.6,0-77.1,0-115.7,0c-3.1,0-5.7-0.6-7.1-3.6
	c0-82.5,0-165,0-247.5c1.5-2.8,3.8-3.6,6.9-3.5c4.7,0.2,9.4,0,14.1,0c2.5,0,5.1,0,7.9,0c0-4.3,0.1-8.3,0-12.2c-0.1-3,0.7-5.4,3.3-7
	c12.2,0,24.4,0,36.5,0c2.7,1.4,3.6,3.7,3.4,6.6c-0.2,4.1,0,8.2,0,12.4c35.4,0,70.5,0,105.7,0c0-4.2,0.1-8.1,0-12.1
	c-0.1-3,0.7-5.4,3.3-7C193.8,0.6,206,0.6,218.1,0.6z M10.3,67.6c76.9,0,153.5,0,230.2,0c0-12.8,0-25.5,0-38c-6.4,0-12.7,0-19.1,0
	c0,4.1,0,7.9,0,11.8c0,5.8-1.4,7.2-7.1,7.2c-9.7,0-19.4,0-29.1,0c-5.5,0-7-1.5-7-7.1c0-4,0-8,0-12c-35.4,0-70.4,0-105.7,0
	c0,4.3,0,8.4,0,12.6c0,4.9-1.6,6.5-6.4,6.5c-10.1,0-20.1,0-30.2,0c-4.9,0-6.6-1.7-6.6-6.7c0-4.1,0-8.2,0-12.4c-6.6,0-12.8,0-19.1,0
	C10.3,42.3,10.3,54.8,10.3,67.6z M211.8,10.3c-8,0-15.8,0-23.8,0c0,9.6,0,18.9,0,28.4c8,0,15.9,0,23.8,0
	C211.8,29.1,211.8,19.8,211.8,10.3z M39,38.8c8.1,0,15.9,0,23.8,0c0-9.6,0-19,0-28.7c-7.6,0-14.9,0-22.3,0.1c-0.5,0-1.5,1.1-1.5,1.7
	C39,20.7,39,29.6,39,38.8z"/>
<path class="st0" d="M34.4,101.5c60.7,0,121.2,0,182.1,0c0,17.5,0,34.9,0,52.7c-14.2,0-28.4,0-43,0c0,14.5,0,28.8,0,43.3
	c-14.6,0-28.7,0-43.3,0c0,14.5,0,28.7,0,43.1c-32.1,0-63.9,0-95.8,0C34.4,194.2,34.4,147.9,34.4,101.5z M77.3,144.4
	c0-11.2,0-22.1,0-33.2c-11.2,0-22.3,0-33.4,0c0,11.2,0,22.1,0,33.2C55.1,144.4,66.1,144.4,77.3,144.4z M87.2,144.4
	c11.2,0,22.3,0,33.3,0c0-11.2,0-22.2,0-33.1c-11.2,0-22.2,0-33.3,0C87.2,122.4,87.2,133.3,87.2,144.4z M130.4,111.2
	c0,11.3,0,22.2,0,33.2c11.2,0,22.2,0,33.3,0c0-11.2,0-22.2,0-33.2C152.5,111.2,141.6,111.2,130.4,111.2z M207,111.3
	c-11.2,0-22.2,0-33.3,0c0,11.2,0,22.1,0,33.2c11.2,0,22.2,0,33.3,0C207,133.3,207,122.4,207,111.3z M43.9,187.7
	c11.2,0,22.2,0,33.3,0c0-11.2,0-22.2,0-33.2c-11.2,0-22.2,0-33.3,0C43.9,165.5,43.9,176.5,43.9,187.7z M120.6,154.4
	c-11.2,0-22.2,0-33.3,0c0,11.2,0,22.2,0,33.2c11.2,0,22.2,0,33.3,0C120.6,176.6,120.6,165.7,120.6,154.4z M163.7,154.5
	c-11.2,0-22.2,0-33.3,0c0,11.1,0,22.1,0,33.2c11.2,0,22.2,0,33.3,0C163.7,176.6,163.7,165.7,163.7,154.5z M43.9,197.6
	c0,11.2,0,22.2,0,33.3c11.2,0,22.2,0,33.3,0c0-11.1,0-22.1,0-33.3C66.1,197.6,55.2,197.6,43.9,197.6z M87.2,230.9
	c11.2,0,22.2,0,33.3,0c0-11.1,0-22.1,0-33.2c-11.2,0-22.2,0-33.3,0C87.2,208.9,87.2,219.8,87.2,230.9z"/>
<path class="st0" d="M183.8,283.5c-2.7-1.7-3.6-4-2.9-7.3c2-10.2,3.7-20.5,5.6-30.7c0.5-2.4,0-4-1.9-5.7
	c-7.9-7.2-15.6-14.6-23.5-21.9c-1.8-1.7-3.1-3.5-2.2-6.1c0.8-2.5,2.9-3.1,5.2-3.4c11.1-1.5,22.3-3.1,33.4-4.6c1.9-0.2,2.9-1,3.7-2.6
	c4.8-9.6,9.8-19.2,14.7-28.8c1.1-2.2,2.5-4,5.1-3.9c2.7,0,4,1.8,5.1,4c4.9,9.6,9.8,19.2,14.7,28.8c0.8,1.6,1.8,2.3,3.5,2.5
	c11.1,1.4,22.1,3.1,33.1,4.5c2.6,0.4,4.7,1.3,6,3.8c0,0.9,0,1.8,0,2.8c-1.2,1.3-2.4,2.8-3.7,4c-7.7,7.3-15.5,14.5-23.1,21.9
	c-0.8,0.8-1.4,2.4-1.3,3.5c1.8,10.6,3.6,21.2,5.6,31.8c0.6,3.3,0,5.8-3.1,7.4c-0.9,0-1.8,0-2.8,0c-11-5.6-21.9-11.2-32.9-16.7
	c-0.8-0.4-2.2-0.3-3,0.1c-10.9,5.5-21.8,11-32.7,16.5C185.7,283.5,184.7,283.5,183.8,283.5z M221,183.7c-0.7,1.3-1.2,2.1-1.7,3
	c-3.8,7.4-7.6,14.8-11.3,22.2c-1,2-2.3,3.5-4.7,3.8c-5.4,0.7-10.8,1.5-16.2,2.2c-4.2,0.6-8.4,1.2-12.6,1.8c-0.1,0.2-0.2,0.5-0.3,0.7
	c0.7,0.6,1.5,1.1,2.2,1.7c6,5.6,11.9,11.3,18,16.8c2,1.8,2.9,3.8,2.3,6.6c-0.9,3.9-1.5,8-2.2,12c-0.9,5-1.7,9.9-2.7,15.4
	c1.3-0.6,2.3-1,3.1-1.4c7.3-3.7,14.7-7.3,21.9-11.2c2.8-1.5,5.3-1.5,8.1,0c7.5,3.9,15.1,7.7,22.7,11.5c0.7,0.3,1.4,0.6,2.4,1.1
	c-0.1-0.9-0.2-1.3-0.3-1.8c-1.4-8.2-2.8-16.3-4.4-24.5c-0.6-3.1-0.2-5.6,2.4-7.9c6.1-5.4,11.9-11.1,17.8-16.6
	c0.7-0.6,1.3-1.3,2.2-2.3c-9.7-1.4-18.9-2.8-28.2-4c-2.9-0.4-4.6-1.7-5.9-4.2C229.6,200.4,225.5,192.3,221,183.7z"/>
</svg>
