<?xml version="1.0" encoding="UTF-8" standalone="no"?>
<!-- Created with Inkscape (http://www.inkscape.org/) -->

<svg
   xmlns:dc="http://purl.org/dc/elements/1.1/"
   xmlns:cc="http://creativecommons.org/ns#"
   xmlns:rdf="http://www.w3.org/1999/02/22-rdf-syntax-ns#"
   xmlns:svg="http://www.w3.org/2000/svg"
   xmlns="http://www.w3.org/2000/svg"
   xmlns:sodipodi="http://sodipodi.sourceforge.net/DTD/sodipodi-0.dtd"
   xmlns:inkscape="http://www.inkscape.org/namespaces/inkscape"
   width="100mm"
   height="100mm"
   viewBox="0 0 100 100"
   version="1.1"
   id="svg3715"
   inkscape:version="0.92.2 (5c3e80d, 2017-08-06)"
   sodipodi:docname="event_white_transparent.svg">
  <defs
     id="defs3709" />
  <sodipodi:namedview
     id="base"
     pagecolor="#ffffff"
     bordercolor="#666666"
     borderopacity="1.0"
     inkscape:pageopacity="0.0"
     inkscape:pageshadow="2"
     inkscape:zoom="2.8"
     inkscape:cx="91.374639"
     inkscape:cy="127.1023"
     inkscape:document-units="mm"
     inkscape:current-layer="layer1"
     showgrid="false"
     inkscape:window-width="2736"
     inkscape:window-height="1732"
     inkscape:window-x="-12"
     inkscape:window-y="40"
     inkscape:window-maximized="1" />
  <metadata
     id="metadata3712">
    <rdf:RDF>
      <cc:Work
         rdf:about="">
        <dc:format>image/svg+xml</dc:format>
        <dc:type
           rdf:resource="http://purl.org/dc/dcmitype/StillImage" />
        <dc:title></dc:title>
      </cc:Work>
    </rdf:RDF>
  </metadata>
  <g
     inkscape:label="Layer 1"
     inkscape:groupmode="layer"
     id="layer1"
     transform="translate(0,-197)">
    <path
       inkscape:connector-curvature="0"
       class="st1"
       d="m 99.979373,236.35663 c -0.55683,0.7344 -1.03118,1.55521 -1.67051,2.22481 -6.9708,7.21441 -13.98284,14.38563 -20.99489,21.55683 -0.53621,0.54001 -0.7012,1.03681 -0.55683,1.79281 1.73238,10.30322 3.46477,20.58484 5.19716,30.88805 0.22686,1.31761 0.14436,2.54881 -0.96931,3.41281 -1.15493,0.8856 -2.30985,0.648 -3.4854,0 -8.80631,-4.83841 -17.63323,-9.65522 -26.43954,-14.49362 -0.68057,-0.36721 -1.17554,-0.4104 -1.85613,-0.0216 -8.80629,4.92481 -17.63322,9.80642 -26.43952,14.70963 -0.8662,0.4752 -1.73239,0.7776 -2.701703,0.4104 -1.319912,-0.4968 -2.021121,-1.7712 -1.773637,-3.34801 0.680584,-4.4064 1.402411,-8.79121 2.103613,-13.19762 0.989937,-6.17762 2.021117,-12.35522 2.969807,-18.53283 0.0619,-0.4104 -0.24748,-1.0152 -0.57746,-1.36081 -7.094539,-7.23601 -14.1890784,-14.45042 -21.3042404,-21.66484 -0.185613,-0.1944 -0.371226,-0.3672 -0.55683898,-0.56159 -0.804321,-0.88561 -1.154924,-1.87921 -0.763075,-3.08881 0.39185,-1.188 1.25804298,-1.77121 2.41296798,-1.9656 1.711764,-0.28081 3.402904,-0.54001 5.114668,-0.79921 8.3732034,-1.3392 16.8082784,-2.6352 25.2227284,-3.9744 0.37123,-0.0648 0.80433,-0.54 0.98994,-0.9288 4.33097,-9.20162 8.62069,-18.40324 12.93104,-27.60486 0.24748,-0.5184 0.47434,-1.0584 0.78369,-1.5336 1.05181,-1.64161 3.25854,-1.7064 4.41347,-0.1512 0.2681,0.3672 0.47434,0.7992 0.68058,1.2312 4.41346,9.28802 8.84755,18.59764 13.24039,27.88565 0.30935,0.648 0.68058,0.97201 1.36116,1.05841 7.98136,1.1664 15.96271,2.3544 23.96469,3.54241 1.95925,0.28079 3.9185,0.60479 5.89837,0.86399 1.36116,0.17281 2.24798,0.95041 2.825437,2.20321 -0.0207,0.4968 -0.0207,0.972 -0.0207,1.4472 z m -75.37947,52.3801 c 0.49497,-0.2592 0.80433,-0.4104 1.1343,-0.5832 7.44514,-4.12561 14.89029,-8.22962 22.3148,-12.39842 1.40241,-0.79921 2.61921,-0.82081 4.04224,-0.0216 7.46576,4.14721 14.97277,8.20802 22.45917,12.31202 0.30935,0.17281 0.61871,0.324 1.0518,0.54001 -0.0619,-0.45361 -0.10312,-0.756 -0.14437,-1.05841 -1.46428,-8.85602 -2.90793,-17.71203 -4.43408,-26.56804 -0.26811,-1.512 0.14436,-2.61361 1.17555,-3.65041 6.08398,-6.19921 12.14733,-12.44163 18.23132,-18.66244 0.24748,-0.2376 0.6187,-0.34559 0.92806,-0.5184 -0.10312,-0.1296 -0.20624,-0.2808 -0.30936,-0.4104 -0.74245,-0.108 -1.46428,-0.2376 -2.20673,-0.3456 -7.98136,-1.188 -15.96271,-2.39761 -23.96469,-3.54241 -1.54678,-0.21599 -2.49547,-1.0152 -3.17605,-2.4624 -3.73288,-7.94881 -7.50701,-15.85442 -11.28114,-23.78164 -0.16499,-0.32401 -0.32998,-0.648 -0.53621,-1.08001 -0.20624,0.41041 -0.37123,0.69121 -0.49497,0.99361 -3.75351,8.03522 -7.54826,16.07042 -11.26052,24.12724 -0.63933,1.38241 -1.56739,2.052 -2.99043,2.26801 -7.65138,1.1664 -15.323377,2.3544 -22.974754,3.5424 -1.093055,0.1728 -2.1861094,0.36721 -3.5678944,0.6048 0.453721,0.38881 0.701205,0.5616 0.907442,0.77761 6.1046024,6.19921 12.1679564,12.42002 18.2931864,18.57602 1.07243,1.08001 1.4849,2.22481 1.23741,3.73682 -0.76306,4.6008 -1.4849,9.20161 -2.22735,13.80242 -0.72183,4.53601 -1.44365,9.07202 -2.20673,13.80243 z"
       id="path6"
       style="fill:#ffffff;stroke-width:0.21106203" />
  </g>
</svg>
