<?xml version="1.0" encoding="utf-8"?>
<!-- Generator: Adobe Illustrator 22.0.0, SVG Export Plug-In . SVG Version: 6.00 Build 0)  -->
<svg version="1.1" id="Layer_1" xmlns="http://www.w3.org/2000/svg" xmlns:xlink="http://www.w3.org/1999/xlink" x="0px" y="0px"
	 viewBox="0 0 512 512" style="enable-background:new 0 0 512 512;" xml:space="preserve">
<style type="text/css">
	.st0{display:none;fill:#FFFFFF;}
	.st1{fill:#FFFFFF;}
</style>
<g>
	<path class="st0" d="M500.2,207.9c0,97.6,0,195.1,0,292.7c-162,0-324,0-485.9,0c0-162,0-324,0-485.9c162,0,324,0,485.9,0
		c0,62.2,0,124.4,0,186.6c-2.8-5.8-7.1-9.4-13.7-10.2c-9.5-1.2-19.1-2.6-28.6-4c-38.7-5.5-77.4-11-116.2-16.4
		c-3.3-0.5-5.1-1.9-6.6-4.9c-21.3-43.1-42.7-86.1-64.2-129.1c-1-2-2-4-3.3-5.7c-5.6-7.2-16.3-6.8-21.4,0.7c-1.5,2.2-2.6,4.7-3.8,7.1
		c-20.9,42.6-41.7,85.2-62.7,127.8c-0.9,1.8-3,4-4.8,4.3C134.2,177,93.3,183,52.5,189.1c-8.3,1.2-16.5,2.4-24.8,3.7
		c-5.5,0.9-9.7,3.6-11.7,9.1c-2,5.6-0.2,10.2,3.7,14.3c0.9,0.9,1.8,1.8,2.7,2.6c34.5,33.4,68.9,66.8,103.3,100.3
		c1.6,1.5,3.1,4.3,2.8,6.3c-4.6,28.6-9.5,57.2-14.4,85.8c-3.4,20.4-6.9,40.7-10.2,61.1c-1.2,7.3,2.2,13.2,8.6,15.5
		c4.7,1.6,8.9,0.3,13.1-1.9c42.7-22.7,85.5-45.3,128.2-68.1c3.3-1.8,5.8-1.6,9,0.1c42.7,22.4,85.5,44.7,128.2,67.1
		c5.7,3,11.3,4.2,16.9,0c5.4-4,5.8-9.7,4.7-15.8c-8.4-47.7-16.7-95.3-25.2-143c-0.6-3.5,0.2-5.8,2.7-8.3
		c34-33.2,67.9-66.4,101.8-99.8C495.1,215.1,497.5,211.4,500.2,207.9z"/>
	<path class="st1" d="M500.2,207.9c-2.7,3.4-5,7.2-8.1,10.3c-33.8,33.4-67.8,66.6-101.8,99.8c-2.6,2.5-3.4,4.8-2.7,8.3
		c8.4,47.7,16.8,95.3,25.2,143c1.1,6.1,0.7,11.8-4.7,15.8c-5.6,4.1-11.2,3-16.9,0c-42.7-22.4-85.5-44.7-128.2-67.1
		c-3.3-1.7-5.7-1.9-9-0.1c-42.7,22.8-85.5,45.4-128.2,68.1c-4.2,2.2-8.4,3.6-13.1,1.9c-6.4-2.3-9.8-8.2-8.6-15.5
		c3.3-20.4,6.8-40.7,10.2-61.1c4.8-28.6,9.8-57.2,14.4-85.8c0.3-1.9-1.2-4.7-2.8-6.3c-34.4-33.5-68.8-66.9-103.3-100.3
		c-0.9-0.9-1.8-1.7-2.7-2.6c-3.9-4.1-5.6-8.7-3.7-14.3c1.9-5.5,6.1-8.2,11.7-9.1c8.3-1.3,16.5-2.5,24.8-3.7
		C93.3,183,134.2,177,175,170.8c1.8-0.3,3.9-2.5,4.8-4.3c21-42.6,41.8-85.2,62.7-127.8c1.2-2.4,2.3-4.9,3.8-7.1
		c5.1-7.6,15.8-7.9,21.4-0.7c1.3,1.7,2.3,3.7,3.3,5.7c21.4,43,42.9,86.1,64.2,129.1c1.5,3,3.3,4.5,6.6,4.9
		c38.7,5.4,77.4,10.9,116.2,16.4c9.5,1.3,19,2.8,28.6,4c6.6,0.8,10.9,4.4,13.7,10.2C500.2,203.5,500.2,205.7,500.2,207.9z
		 M134.7,450.4c2.4-1.2,3.9-1.9,5.5-2.7c36.1-19.1,72.2-38.1,108.2-57.4c6.8-3.7,12.7-3.8,19.6-0.1c36.2,19.2,72.6,38,108.9,57
		c1.5,0.8,3,1.5,5.1,2.5c-0.3-2.1-0.5-3.5-0.7-4.9c-7.1-41-14.1-82-21.5-123c-1.3-7,0.7-12.1,5.7-16.9
		c29.5-28.7,58.9-57.6,88.4-86.4c1.2-1.1,3-1.6,4.5-2.4c-0.5-0.6-1-1.3-1.5-1.9c-3.6-0.5-7.1-1.1-10.7-1.6
		c-38.7-5.5-77.4-11.1-116.2-16.4c-7.5-1-12.1-4.7-15.4-11.4c-18.1-36.8-36.4-73.4-54.7-110.1c-0.8-1.5-1.6-3-2.6-5
		c-1,1.9-1.8,3.2-2.4,4.6c-18.2,37.2-36.6,74.4-54.6,111.7c-3.1,6.4-7.6,9.5-14.5,10.5c-37.1,5.4-74.3,10.9-111.4,16.4
		c-5.3,0.8-10.6,1.7-17.3,2.8c2.2,1.8,3.4,2.6,4.4,3.6c29.6,28.7,59,57.5,88.7,86c5.2,5,7.2,10.3,6,17.3
		c-3.7,21.3-7.2,42.6-10.8,63.9C141.9,407.5,138.4,428.5,134.7,450.4z"/>
	<path class="st0" d="M134.7,450.4c3.7-22,7.2-42.9,10.7-63.9c3.6-21.3,7.1-42.6,10.8-63.9c1.2-7-0.8-12.3-6-17.3
		c-29.7-28.5-59.2-57.3-88.7-86c-1-1-2.2-1.8-4.4-3.6c6.7-1.1,12-2,17.3-2.8c37.1-5.5,74.2-11,111.4-16.4c6.8-1,11.4-4.1,14.5-10.5
		c18.1-37.3,36.4-74.5,54.6-111.7c0.7-1.4,1.4-2.7,2.4-4.6c1,2,1.8,3.5,2.6,5c18.3,36.7,36.6,73.3,54.7,110.1
		c3.3,6.7,7.9,10.4,15.4,11.4c38.7,5.3,77.4,10.9,116.2,16.4c3.6,0.5,7.1,1.1,10.7,1.6c0.5,0.6,1,1.3,1.5,1.9
		c-1.5,0.8-3.4,1.2-4.5,2.4c-29.5,28.8-58.9,57.6-88.4,86.4c-5,4.8-6.9,9.9-5.7,16.9c7.3,41,14.4,82,21.5,123
		c0.2,1.4,0.4,2.8,0.7,4.9c-2.1-1-3.6-1.8-5.1-2.5c-36.3-19-72.7-37.8-108.9-57c-6.9-3.6-12.8-3.5-19.6,0.1
		c-36,19.3-72.1,38.3-108.2,57.4C138.6,448.5,137.1,449.2,134.7,450.4z"/>
</g>
</svg>
