<?xml version="1.0" encoding="utf-8"?>
<!-- Generator: Adobe Illustrator 22.0.0, SVG Export Plug-In . SVG Version: 6.00 Build 0)  -->
<svg version="1.1" id="Layer_1" xmlns="http://www.w3.org/2000/svg" xmlns:xlink="http://www.w3.org/1999/xlink" x="0px" y="0px"
	 viewBox="0 0 512 512" style="enable-background:new 0 0 512 512;" xml:space="preserve">
<style type="text/css">
	.st0{display:none;fill:#FFFFFF;}
	.st1{fill:#FFFFFF;}
</style>
<g>
	<path class="st0" d="M505.6,505.2c-164.9,0-329.9,0-494.9,0c0-164.9,0-329.8,0-494.8c164.9,0,329.9,0,494.9,0
		C505.6,175.3,505.6,340.3,505.6,505.2z M242.1,81c-50.8,4.7-94.1,24.9-129.1,61.6C78,179.3,59.7,223.5,58,274.2
		c-3,86.5,51.3,164.9,132.4,194c83.2,29.9,177.1,1.7,231.2-73.8c44.2-61.7,58.4-172.9-21.2-254.8c5-5.2,10-10.3,15.7-16.2
		c1.9,2.2,3.6,4.7,5.8,6.8c6.9,6.5,16.2,6.7,22.5,0.6c6.3-6.2,6.2-16-0.5-22.8c-11.6-11.8-23.3-23.5-35.1-35.1
		c-7-6.9-16.5-7-22.8-0.6c-6.4,6.4-6.1,15.6,0.8,22.8c2.1,2.2,4.5,4,6.5,5.7c-6.4,6.3-12,11.8-17.9,17.6
		C345.4,96.7,311.4,84.3,274.2,81c0-4.8,0-9,0-13.6c11.3,0,22.2,0.1,33.2,0c10.2-0.1,16.9-6.5,16.8-15.8
		c-0.1-9.1-6.8-15.4-16.8-15.4c-33.8-0.1-67.5-0.1-101.3,0c-9.9,0-16.6,6.5-16.7,15.5c0,9,6.7,15.5,16.6,15.6
		c10.3,0.1,20.6,0,30.9,0c1.7,0,3.4,0,5.2,0C242.1,72.3,242.1,76.3,242.1,81z"/>
	<path class="st1" d="M242.1,81c0-4.7,0-8.7,0-13.5c-1.8,0-3.5,0-5.2,0c-10.3,0-20.6,0.1-30.9,0c-9.9-0.1-16.6-6.6-16.6-15.6
		c0-9.1,6.8-15.5,16.7-15.5c33.8-0.1,67.5-0.1,101.3,0c9.9,0,16.7,6.3,16.8,15.4c0.1,9.3-6.6,15.7-16.8,15.8
		c-10.9,0.1-21.8,0-33.2,0c0,4.6,0,8.8,0,13.6c37.2,3.2,71.2,15.6,101.1,37.4c5.9-5.8,11.5-11.3,17.9-17.6c-2-1.7-4.4-3.5-6.5-5.7
		c-6.9-7.2-7.2-16.4-0.8-22.8c6.3-6.4,15.8-6.3,22.8,0.6c11.8,11.6,23.5,23.3,35.1,35.1c6.7,6.9,6.8,16.7,0.5,22.8
		c-6.3,6.1-15.6,6-22.5-0.6c-2.2-2.1-4-4.6-5.8-6.8c-5.7,5.9-10.7,11.1-15.7,16.2c79.6,81.9,65.4,193.1,21.2,254.8
		c-54,75.4-147.9,103.7-231.2,73.8C109.2,439.1,54.9,360.7,58,274.2c1.8-50.8,20-94.9,55.1-131.6C148,105.9,191.3,85.7,242.1,81z
		 M257.6,111.6c-92.9,0-168.6,75.7-168.8,168.7c-0.2,92.6,75.7,168.7,168.6,169c92.7,0.3,169.2-76.2,169.1-169
		C426.3,187.5,350.3,111.6,257.6,111.6z"/>
	<path class="st0" d="M257.6,111.6c92.7,0,168.7,75.9,168.9,168.7c0.2,92.8-76.4,169.3-169.1,169C164.5,449,88.6,373,88.8,280.3
		C88.9,187.3,164.7,111.6,257.6,111.6z M273.2,261.7c0-2.7,0-4.5,0-6.2c0-24.9,0.1-49.8-0.1-74.7c-0.1-9.2-6.7-15.5-15.6-15.4
		c-8.7,0.1-15.3,6.2-15.4,15.2c-0.2,32.5-0.2,64.9,0,97.4c0,8.4,6.2,14.9,14.5,15c23,0.2,46,0.2,68.9,0c7.1-0.1,12.6-4.9,14.2-11.6
		c2.5-10.3-4.3-19.2-15.5-19.5c-14-0.3-28-0.1-41.9-0.1C279.5,261.7,276.6,261.7,273.2,261.7z"/>
	<path class="st1" d="M273.2,261.7c3.4,0,6.2,0,9.1,0c14,0,28-0.2,41.9,0.1c11.1,0.2,18,9.1,15.5,19.5c-1.6,6.7-7.1,11.6-14.2,11.6
		c-23,0.2-46,0.2-68.9,0c-8.3-0.1-14.5-6.5-14.5-15c-0.1-32.5-0.1-64.9,0-97.4c0-8.9,6.7-15.1,15.4-15.2c8.9-0.1,15.6,6.2,15.6,15.4
		c0.2,24.9,0.1,49.8,0.1,74.7C273.2,257.3,273.2,259,273.2,261.7z"/>
</g>
</svg>
