<?xml version="1.0" encoding="UTF-8" standalone="no"?>
<!-- Created with Inkscape (http://www.inkscape.org/) -->

<svg
   xmlns:dc="http://purl.org/dc/elements/1.1/"
   xmlns:cc="http://creativecommons.org/ns#"
   xmlns:rdf="http://www.w3.org/1999/02/22-rdf-syntax-ns#"
   xmlns:svg="http://www.w3.org/2000/svg"
   xmlns="http://www.w3.org/2000/svg"
   xmlns:sodipodi="http://sodipodi.sourceforge.net/DTD/sodipodi-0.dtd"
   xmlns:inkscape="http://www.inkscape.org/namespaces/inkscape"
   width="100mm"
   height="100mm"
   viewBox="0 0 100 100"
   version="1.1"
   id="svg3716"
   inkscape:version="0.92.2 (5c3e80d, 2017-08-06)"
   sodipodi:docname="race_white_transparent.svg">
  <defs
     id="defs3710" />
  <sodipodi:namedview
     id="base"
     pagecolor="#ffffff"
     bordercolor="#666666"
     borderopacity="1.0"
     inkscape:pageopacity="0.0"
     inkscape:pageshadow="2"
     inkscape:zoom="1.979899"
     inkscape:cx="195.75186"
     inkscape:cy="140.44287"
     inkscape:document-units="mm"
     inkscape:current-layer="layer1"
     showgrid="false"
     inkscape:window-width="2736"
     inkscape:window-height="1732"
     inkscape:window-x="-12"
     inkscape:window-y="40"
     inkscape:window-maximized="1" />
  <metadata
     id="metadata3713">
    <rdf:RDF>
      <cc:Work
         rdf:about="">
        <dc:format>image/svg+xml</dc:format>
        <dc:type
           rdf:resource="http://purl.org/dc/dcmitype/StillImage" />
        <dc:title></dc:title>
      </cc:Work>
    </rdf:RDF>
  </metadata>
  <g
     inkscape:label="Layer 1"
     inkscape:groupmode="layer"
     id="layer1"
     transform="translate(0,-197)">
    <path
       inkscape:connector-curvature="0"
       class="st1"
       d="m 46.521812,207.06682 c 0,-1.05906 0,-1.96038 0,-3.04196 -0.403453,0 -0.784485,0 -1.165518,0 -2.308623,0 -4.617247,0.0226 -6.925869,0 -2.218967,-0.0226 -3.720693,-1.48716 -3.720693,-3.51516 0,-2.05048 1.52414,-3.49263 3.743107,-3.49263 7.575865,-0.0225 15.129324,-0.0225 22.705193,0 2.218964,0 3.743105,1.41961 3.765519,3.47009 0.02246,2.09557 -1.479311,3.5377 -3.765519,3.56026 -2.443109,0.0226 -4.886212,0 -7.441388,0 0,1.03647 0,1.98289 0,3.06447 8.337938,0.72106 15.95863,3.51515 22.660368,8.42737 1.322414,-1.30692 2.577582,-2.54627 4.012071,-3.96584 -0.44828,-0.38307 -0.986211,-0.78867 -1.456897,-1.28441 -1.546556,-1.62235 -1.613793,-3.6954 -0.179313,-5.13747 1.412065,-1.44214 3.541385,-1.4196 5.110349,0.13514 2.644827,2.61385 5.267247,5.25024 7.867252,7.90912 1.501715,1.55481 1.524133,3.76303 0.112066,5.13755 -1.412073,1.3745 -3.496554,1.35195 -5.043111,-0.13524 -0.4931,-0.47315 -0.896548,-1.03648 -1.299997,-1.53222 -1.277593,1.32945 -2.398276,2.50116 -3.51897,3.65036 17.841401,18.45453 14.658632,43.5113 4.75173,57.41418 C 74.628734,294.72035 53.582163,301.09718 34.911456,294.35977 16.733854,287.75759 4.5631546,270.09171 5.2579825,250.60065 5.6614311,239.15387 9.7407447,229.21679 17.607991,220.94719 c 7.822422,-8.26968 17.527604,-12.82132 28.913821,-13.88037 z m 3.474136,6.89512 c -20.822429,0 -37.789684,17.0575 -37.83451,38.0132 -0.04484,20.8656 16.967256,38.01326 37.789688,38.08082 20.777605,0.0677 37.924167,-17.17015 37.901751,-38.08082 -0.04483,-20.91066 -17.079325,-38.0132 -37.856929,-38.0132 z"
       id="path6"
       style="fill:#ffffff;stroke-width:0.22473343" />
    <path
       inkscape:connector-curvature="0"
       class="st1"
       d="m 53.492509,247.784 c 0.762065,0 1.389654,0 2.039655,0 3.137932,0 6.275867,-0.0451 9.391387,0.0226 2.487931,0.0451 4.034488,2.05047 3.474141,4.39394 -0.358617,1.50972 -1.59138,2.61384 -3.18276,2.61384 -5.155179,0.0452 -10.310359,0.0452 -15.443117,0 -1.860348,-0.0226 -3.250003,-1.46469 -3.250003,-3.37993 -0.02243,-7.32326 -0.02243,-14.62398 0,-21.94723 0,-2.00544 1.501725,-3.40249 3.451729,-3.42501 1.994825,-0.0226 3.496553,1.39705 3.496553,3.4701 0.04482,5.61074 0.02243,11.22143 0.02243,16.83214 0,0.42815 0,0.8112 0,1.41959 z"
       id="path10"
       style="fill:#ffffff;stroke-width:0.22473343" />
  </g>
</svg>
